# Blender v3.2.1 OBJ File: ''
# www.blender.org
mtllib orange_collis.mtl
o Sphere_Sphere.001
v 0.000000 0.212132 -0.212132
v 0.000000 0.114805 -0.277164
v 0.000000 -0.114805 -0.277164
v 0.000000 -0.277164 -0.114805
v 0.043934 0.277164 -0.106066
v 0.081179 0.212132 -0.195984
v 0.106066 0.114805 -0.256066
v 0.114805 -0.000000 -0.277164
v 0.106066 -0.114805 -0.256066
v 0.081179 -0.212132 -0.195984
v 0.043934 -0.277164 -0.106066
v 0.081179 0.277164 -0.081179
v 0.150000 0.212132 -0.150000
v 0.195984 0.114805 -0.195984
v 0.212132 -0.000000 -0.212132
v 0.195984 -0.114805 -0.195984
v 0.150000 -0.212132 -0.150000
v 0.081179 -0.277164 -0.081179
v 0.106066 0.277164 -0.043934
v 0.195984 0.212132 -0.081179
v 0.256066 0.114805 -0.106066
v 0.277164 -0.000000 -0.114805
v 0.256066 -0.114805 -0.106066
v 0.195984 -0.212132 -0.081179
v 0.106066 -0.277164 -0.043934
v 0.114805 0.277164 0.000000
v 0.212132 0.212132 0.000000
v 0.277164 0.114805 0.000000
v 0.300000 -0.000000 0.000000
v 0.277164 -0.114805 0.000000
v 0.212132 -0.212132 0.000000
v 0.114805 -0.277164 0.000000
v 0.106066 0.277164 0.043934
v 0.195984 0.212132 0.081179
v 0.256066 0.114805 0.106066
v 0.277164 -0.000000 0.114805
v 0.256066 -0.114805 0.106066
v 0.195984 -0.212132 0.081179
v 0.106066 -0.277164 0.043934
v 0.081179 0.277164 0.081179
v 0.150000 0.212132 0.150000
v 0.195984 0.114805 0.195984
v 0.212132 -0.000000 0.212132
v 0.195984 -0.114805 0.195985
v 0.150000 -0.212132 0.150000
v 0.081179 -0.277164 0.081179
v 0.043934 0.277164 0.106066
v 0.081179 0.212132 0.195985
v 0.106066 0.114805 0.256066
v 0.114805 -0.000000 0.277164
v 0.106066 -0.114805 0.256066
v 0.081179 -0.212132 0.195985
v 0.043934 -0.277164 0.106066
v -0.000000 0.300000 0.000000
v -0.000000 0.277164 0.114805
v -0.000000 0.212132 0.212132
v -0.000000 0.114805 0.277164
v -0.000000 -0.000000 0.300000
v -0.000000 -0.114805 0.277164
v -0.000000 -0.212132 0.212132
v -0.000000 -0.277164 0.114805
v -0.043934 0.277164 0.106066
v -0.081179 0.212132 0.195984
v -0.106066 0.114805 0.256066
v -0.114805 -0.000000 0.277164
v -0.106066 -0.114805 0.256066
v -0.081179 -0.212132 0.195984
v -0.043934 -0.277164 0.106066
v -0.081179 0.277164 0.081179
v -0.150000 0.212132 0.150000
v -0.195984 0.114805 0.195984
v -0.212132 -0.000000 0.212132
v -0.195984 -0.114805 0.195984
v -0.150000 -0.212132 0.150000
v -0.081179 -0.277164 0.081179
v 0.000000 -0.300000 0.000000
v -0.106066 0.277164 0.043934
v -0.195984 0.212132 0.081179
v -0.256066 0.114805 0.106066
v -0.277164 -0.000000 0.114805
v -0.256066 -0.114805 0.106066
v -0.195984 -0.212132 0.081179
v -0.106066 -0.277164 0.043934
v -0.114805 0.277164 -0.000000
v -0.212132 0.212132 -0.000000
v -0.277164 0.114805 -0.000000
v -0.300000 -0.000000 -0.000000
v -0.277164 -0.114805 -0.000000
v -0.212132 -0.212132 -0.000000
v -0.114805 -0.277164 -0.000000
v -0.106066 0.277164 -0.043934
v -0.195984 0.212132 -0.081179
v -0.256066 0.114805 -0.106066
v -0.277164 -0.000000 -0.114805
v -0.256066 -0.114805 -0.106066
v -0.195984 -0.212132 -0.081179
v -0.106066 -0.277164 -0.043934
v -0.081179 0.277164 -0.081179
v -0.150000 0.212132 -0.150000
v -0.195984 0.114805 -0.195984
v -0.212132 -0.000000 -0.212132
v -0.195984 -0.114805 -0.195985
v -0.150000 -0.212132 -0.150000
v -0.081179 -0.277164 -0.081179
v -0.043934 0.277164 -0.106066
v -0.081179 0.212132 -0.195984
v -0.106066 0.114805 -0.256066
v -0.114805 -0.000000 -0.277164
v -0.106066 -0.114805 -0.256066
v -0.081179 -0.212132 -0.195984
v -0.043934 -0.277164 -0.106066
v 0.000000 0.277164 -0.114805
v 0.000000 -0.000000 -0.300000
v 0.000000 -0.212132 -0.212132
vt 0.718750 0.000000
vt 0.750000 0.125000
vt 0.687500 0.125000
vt 0.750000 0.250000
vt 0.750000 0.375000
vt 0.687500 0.375000
vt 0.687500 0.250000
vt 0.750000 0.500000
vt 0.750000 0.625000
vt 0.687500 0.625000
vt 0.687500 0.500000
vt 0.750000 0.750000
vt 0.750000 0.875000
vt 0.687500 0.875000
vt 0.687500 0.750000
vt 0.718750 1.000000
vt 0.625000 0.250000
vt 0.625000 0.125000
vt 0.625000 0.500000
vt 0.625000 0.375000
vt 0.625000 0.750000
vt 0.625000 0.625000
vt 0.656250 1.000000
vt 0.625000 0.875000
vt 0.656250 0.000000
vt 0.562500 0.500000
vt 0.562500 0.375000
vt 0.562500 0.750000
vt 0.562500 0.625000
vt 0.593750 1.000000
vt 0.562500 0.875000
vt 0.593750 0.000000
vt 0.562500 0.125000
vt 0.562500 0.250000
vt 0.531250 0.000000
vt 0.500000 0.125000
vt 0.500000 0.375000
vt 0.500000 0.250000
vt 0.500000 0.625000
vt 0.500000 0.500000
vt 0.500000 0.875000
vt 0.500000 0.750000
vt 0.531250 1.000000
vt 0.437500 0.625000
vt 0.437500 0.500000
vt 0.437500 0.875000
vt 0.437500 0.750000
vt 0.437500 0.250000
vt 0.437500 0.125000
vt 0.437500 0.375000
vt 0.468750 1.000000
vt 0.468750 0.000000
vt 0.375000 0.250000
vt 0.375000 0.125000
vt 0.375000 0.500000
vt 0.375000 0.375000
vt 0.375000 0.750000
vt 0.375000 0.625000
vt 0.406250 1.000000
vt 0.375000 0.875000
vt 0.406250 0.000000
vt 0.312500 0.750000
vt 0.312500 0.625000
vt 0.343750 1.000000
vt 0.312500 0.875000
vt 0.343750 0.000000
vt 0.312500 0.125000
vt 0.312500 0.375000
vt 0.312500 0.250000
vt 0.312500 0.500000
vt 0.281250 0.000000
vt 0.250000 0.125000
vt 0.250000 0.375000
vt 0.250000 0.250000
vt 0.250000 0.625000
vt 0.250000 0.500000
vt 0.250000 0.875000
vt 0.250000 0.750000
vt 0.281250 1.000000
vt 0.187500 0.875000
vt 0.187500 0.750000
vt 0.187500 0.250000
vt 0.187500 0.125000
vt 0.187500 0.500000
vt 0.187500 0.375000
vt 0.187500 0.625000
vt 0.218750 1.000000
vt 0.218750 0.000000
vt 0.125000 0.250000
vt 0.125000 0.125000
vt 0.125000 0.500000
vt 0.125000 0.375000
vt 0.125000 0.750000
vt 0.125000 0.625000
vt 0.156250 1.000000
vt 0.125000 0.875000
vt 0.156250 0.000000
vt 0.093750 1.000000
vt 0.062500 0.875000
vt 0.093750 0.000000
vt 0.062500 0.125000
vt 0.062500 0.375000
vt 0.062500 0.250000
vt 0.062500 0.625000
vt 0.062500 0.500000
vt 0.062500 0.750000
vt 0.000000 0.375000
vt 0.000000 0.250000
vt 0.000000 0.625000
vt 0.000000 0.500000
vt 0.000000 0.875000
vt 0.000000 0.750000
vt 0.000000 0.125000
vt 0.031250 1.000000
vt 0.031250 0.000000
vt 1.000000 0.125000
vt 1.000000 0.250000
vt 0.937500 0.250000
vt 0.937500 0.125000
vt 1.000000 0.375000
vt 1.000000 0.500000
vt 0.937500 0.500000
vt 0.937500 0.375000
vt 1.000000 0.625000
vt 1.000000 0.750000
vt 0.937500 0.750000
vt 0.937500 0.625000
vt 1.000000 0.875000
vt 0.968750 1.000000
vt 0.937500 0.875000
vt 0.968750 0.000000
vt 0.875000 0.500000
vt 0.875000 0.375000
vt 0.875000 0.750000
vt 0.875000 0.625000
vt 0.906250 1.000000
vt 0.875000 0.875000
vt 0.906250 0.000000
vt 0.875000 0.125000
vt 0.875000 0.250000
vt 0.843750 0.000000
vt 0.812500 0.125000
vt 0.812500 0.375000
vt 0.812500 0.250000
vt 0.812500 0.625000
vt 0.812500 0.500000
vt 0.812500 0.875000
vt 0.812500 0.750000
vt 0.843750 1.000000
vt 0.781250 1.000000
vt 0.781250 0.000000
vn 0.0388 -0.9800 -0.1949
vn 0.1632 -0.5481 -0.8203
vn 0.1915 0.1915 -0.9626
vn 0.1098 0.8264 -0.5522
vn 0.1098 -0.8264 -0.5522
vn 0.1915 -0.1915 -0.9626
vn 0.1632 0.5481 -0.8203
vn 0.0388 0.9800 -0.1949
vn 0.3128 -0.8264 -0.4681
vn 0.5453 -0.1915 -0.8161
vn 0.4647 0.5481 -0.6954
vn 0.1104 0.9800 -0.1653
vn 0.1104 -0.9800 -0.1653
vn 0.4647 -0.5481 -0.6954
vn 0.5453 0.1915 -0.8161
vn 0.3128 0.8264 -0.4681
vn 0.8161 -0.1915 -0.5453
vn 0.6954 0.5481 -0.4647
vn 0.1653 0.9800 -0.1104
vn 0.1653 -0.9800 -0.1104
vn 0.6954 -0.5481 -0.4647
vn 0.8161 0.1915 -0.5453
vn 0.4681 0.8264 -0.3128
vn 0.4681 -0.8264 -0.3128
vn 0.1949 -0.9800 -0.0388
vn 0.8203 -0.5481 -0.1632
vn 0.9626 0.1915 -0.1915
vn 0.5522 0.8264 -0.1098
vn 0.5522 -0.8264 -0.1098
vn 0.9626 -0.1915 -0.1915
vn 0.8203 0.5481 -0.1632
vn 0.1949 0.9800 -0.0388
vn 0.9626 0.1915 0.1915
vn 0.5522 0.8264 0.1098
vn 0.5522 -0.8264 0.1098
vn 0.9626 -0.1915 0.1915
vn 0.8203 0.5481 0.1632
vn 0.1949 0.9800 0.0388
vn 0.1949 -0.9800 0.0388
vn 0.8203 -0.5481 0.1632
vn 0.4681 -0.8264 0.3128
vn 0.8161 -0.1915 0.5453
vn 0.6954 0.5481 0.4647
vn 0.1653 0.9800 0.1104
vn 0.1653 -0.9800 0.1104
vn 0.6954 -0.5481 0.4647
vn 0.8161 0.1915 0.5453
vn 0.4681 0.8264 0.3128
vn 0.4647 0.5481 0.6954
vn 0.1104 0.9800 0.1653
vn 0.1104 -0.9800 0.1653
vn 0.4647 -0.5481 0.6954
vn 0.5453 0.1915 0.8161
vn 0.3128 0.8264 0.4681
vn 0.3128 -0.8264 0.4681
vn 0.5453 -0.1915 0.8161
vn 0.0388 -0.9800 0.1949
vn 0.1632 -0.5481 0.8203
vn 0.1915 0.1915 0.9626
vn 0.1098 0.8264 0.5522
vn 0.1098 -0.8264 0.5522
vn 0.1915 -0.1915 0.9626
vn 0.1632 0.5481 0.8203
vn 0.0388 0.9800 0.1949
vn -0.1098 0.8264 0.5522
vn -0.1098 -0.8264 0.5522
vn -0.1915 -0.1915 0.9626
vn -0.1632 0.5481 0.8203
vn -0.0388 0.9800 0.1949
vn -0.0388 -0.9800 0.1949
vn -0.1632 -0.5481 0.8203
vn -0.1915 0.1915 0.9626
vn -0.3128 -0.8264 0.4681
vn -0.5453 -0.1915 0.8161
vn -0.4647 0.5481 0.6954
vn -0.1104 0.9800 0.1653
vn -0.1104 -0.9800 0.1653
vn -0.4647 -0.5481 0.6954
vn -0.5453 0.1915 0.8161
vn -0.3128 0.8264 0.4681
vn -0.1653 0.9800 0.1104
vn -0.1653 -0.9800 0.1104
vn -0.6954 -0.5481 0.4647
vn -0.8161 0.1915 0.5453
vn -0.4681 0.8264 0.3128
vn -0.4681 -0.8264 0.3128
vn -0.8161 -0.1915 0.5453
vn -0.6954 0.5481 0.4647
vn -0.8203 -0.5481 0.1632
vn -0.9626 0.1915 0.1915
vn -0.5522 0.8264 0.1098
vn -0.5522 -0.8264 0.1098
vn -0.9626 -0.1915 0.1915
vn -0.8203 0.5481 0.1632
vn -0.1949 0.9800 0.0388
vn -0.1949 -0.9800 0.0388
vn -0.5522 -0.8264 -0.1098
vn -0.9626 -0.1915 -0.1915
vn -0.8203 0.5481 -0.1632
vn -0.1949 0.9800 -0.0388
vn -0.1949 -0.9800 -0.0388
vn -0.8203 -0.5481 -0.1632
vn -0.9626 0.1915 -0.1915
vn -0.5522 0.8264 -0.1098
vn -0.8161 -0.1915 -0.5453
vn -0.6954 0.5481 -0.4647
vn -0.1653 0.9800 -0.1104
vn -0.1653 -0.9800 -0.1104
vn -0.6954 -0.5481 -0.4647
vn -0.8161 0.1915 -0.5453
vn -0.4681 0.8264 -0.3128
vn -0.4681 -0.8264 -0.3128
vn -0.1104 -0.9800 -0.1653
vn -0.4647 -0.5481 -0.6954
vn -0.5453 0.1915 -0.8161
vn -0.3128 0.8264 -0.4681
vn -0.3128 -0.8264 -0.4681
vn -0.5453 -0.1915 -0.8161
vn -0.4647 0.5481 -0.6954
vn -0.1104 0.9800 -0.1653
vn -0.1915 0.1915 -0.9626
vn -0.1098 0.8264 -0.5522
vn -0.1098 -0.8264 -0.5522
vn -0.1915 -0.1915 -0.9626
vn -0.1632 0.5481 -0.8203
vn -0.0388 0.9800 -0.1949
vn -0.0388 -0.9800 -0.1949
vn -0.1632 -0.5481 -0.8203
usemtl None
s off
f 76/1/1 4/2/1 11/3/1
f 114/4/2 3/5/2 9/6/2 10/7/2
f 113/8/3 2/9/3 7/10/3 8/11/3
f 1/12/4 112/13/4 5/14/4 6/15/4
f 4/2/5 114/4/5 10/7/5 11/3/5
f 3/5/6 113/8/6 8/11/6 9/6/6
f 2/9/7 1/12/7 6/15/7 7/10/7
f 112/13/8 54/16/8 5/14/8
f 11/3/9 10/7/9 17/17/9 18/18/9
f 9/6/10 8/11/10 15/19/10 16/20/10
f 7/10/11 6/15/11 13/21/11 14/22/11
f 5/14/12 54/23/12 12/24/12
f 76/25/13 11/3/13 18/18/13
f 10/7/14 9/6/14 16/20/14 17/17/14
f 8/11/15 7/10/15 14/22/15 15/19/15
f 6/15/16 5/14/16 12/24/16 13/21/16
f 16/20/17 15/19/17 22/26/17 23/27/17
f 14/22/18 13/21/18 20/28/18 21/29/18
f 12/24/19 54/30/19 19/31/19
f 76/32/20 18/18/20 25/33/20
f 17/17/21 16/20/21 23/27/21 24/34/21
f 15/19/22 14/22/22 21/29/22 22/26/22
f 13/21/23 12/24/23 19/31/23 20/28/23
f 18/18/24 17/17/24 24/34/24 25/33/24
f 76/35/25 25/33/25 32/36/25
f 24/34/26 23/27/26 30/37/26 31/38/26
f 22/26/27 21/29/27 28/39/27 29/40/27
f 20/28/28 19/31/28 26/41/28 27/42/28
f 25/33/29 24/34/29 31/38/29 32/36/29
f 23/27/30 22/26/30 29/40/30 30/37/30
f 21/29/31 20/28/31 27/42/31 28/39/31
f 19/31/32 54/43/32 26/41/32
f 29/40/33 28/39/33 35/44/33 36/45/33
f 27/42/34 26/41/34 33/46/34 34/47/34
f 32/36/35 31/38/35 38/48/35 39/49/35
f 30/37/36 29/40/36 36/45/36 37/50/36
f 28/39/37 27/42/37 34/47/37 35/44/37
f 26/41/38 54/51/38 33/46/38
f 76/52/39 32/36/39 39/49/39
f 31/38/40 30/37/40 37/50/40 38/48/40
f 39/49/41 38/48/41 45/53/41 46/54/41
f 37/50/42 36/45/42 43/55/42 44/56/42
f 35/44/43 34/47/43 41/57/43 42/58/43
f 33/46/44 54/59/44 40/60/44
f 76/61/45 39/49/45 46/54/45
f 38/48/46 37/50/46 44/56/46 45/53/46
f 36/45/47 35/44/47 42/58/47 43/55/47
f 34/47/48 33/46/48 40/60/48 41/57/48
f 42/58/49 41/57/49 48/62/49 49/63/49
f 40/60/50 54/64/50 47/65/50
f 76/66/51 46/54/51 53/67/51
f 45/53/52 44/56/52 51/68/52 52/69/52
f 43/55/53 42/58/53 49/63/53 50/70/53
f 41/57/54 40/60/54 47/65/54 48/62/54
f 46/54/55 45/53/55 52/69/55 53/67/55
f 44/56/56 43/55/56 50/70/56 51/68/56
f 76/71/57 53/67/57 61/72/57
f 52/69/58 51/68/58 59/73/58 60/74/58
f 50/70/59 49/63/59 57/75/59 58/76/59
f 48/62/60 47/65/60 55/77/60 56/78/60
f 53/67/61 52/69/61 60/74/61 61/72/61
f 51/68/62 50/70/62 58/76/62 59/73/62
f 49/63/63 48/62/63 56/78/63 57/75/63
f 47/65/64 54/79/64 55/77/64
f 56/78/65 55/77/65 62/80/65 63/81/65
f 61/72/66 60/74/66 67/82/66 68/83/66
f 59/73/67 58/76/67 65/84/67 66/85/67
f 57/75/68 56/78/68 63/81/68 64/86/68
f 55/77/69 54/87/69 62/80/69
f 76/88/70 61/72/70 68/83/70
f 60/74/71 59/73/71 66/85/71 67/82/71
f 58/76/72 57/75/72 64/86/72 65/84/72
f 68/83/73 67/82/73 74/89/73 75/90/73
f 66/85/74 65/84/74 72/91/74 73/92/74
f 64/86/75 63/81/75 70/93/75 71/94/75
f 62/80/76 54/95/76 69/96/76
f 76/97/77 68/83/77 75/90/77
f 67/82/78 66/85/78 73/92/78 74/89/78
f 65/84/79 64/86/79 71/94/79 72/91/79
f 63/81/80 62/80/80 69/96/80 70/93/80
f 69/96/81 54/98/81 77/99/81
f 76/100/82 75/90/82 83/101/82
f 74/89/83 73/92/83 81/102/83 82/103/83
f 72/91/84 71/94/84 79/104/84 80/105/84
f 70/93/85 69/96/85 77/99/85 78/106/85
f 75/90/86 74/89/86 82/103/86 83/101/86
f 73/92/87 72/91/87 80/105/87 81/102/87
f 71/94/88 70/93/88 78/106/88 79/104/88
f 82/103/89 81/102/89 88/107/89 89/108/89
f 80/105/90 79/104/90 86/109/90 87/110/90
f 78/106/91 77/99/91 84/111/91 85/112/91
f 83/101/92 82/103/92 89/108/92 90/113/92
f 81/102/93 80/105/93 87/110/93 88/107/93
f 79/104/94 78/106/94 85/112/94 86/109/94
f 77/99/95 54/114/95 84/111/95
f 76/115/96 83/101/96 90/113/96
f 90/116/97 89/117/97 96/118/97 97/119/97
f 88/120/98 87/121/98 94/122/98 95/123/98
f 86/124/99 85/125/99 92/126/99 93/127/99
f 84/128/100 54/129/100 91/130/100
f 76/131/101 90/116/101 97/119/101
f 89/117/102 88/120/102 95/123/102 96/118/102
f 87/121/103 86/124/103 93/127/103 94/122/103
f 85/125/104 84/128/104 91/130/104 92/126/104
f 95/123/105 94/122/105 101/132/105 102/133/105
f 93/127/106 92/126/106 99/134/106 100/135/106
f 91/130/107 54/136/107 98/137/107
f 76/138/108 97/119/108 104/139/108
f 96/118/109 95/123/109 102/133/109 103/140/109
f 94/122/110 93/127/110 100/135/110 101/132/110
f 92/126/111 91/130/111 98/137/111 99/134/111
f 97/119/112 96/118/112 103/140/112 104/139/112
f 76/141/113 104/139/113 111/142/113
f 103/140/114 102/133/114 109/143/114 110/144/114
f 101/132/115 100/135/115 107/145/115 108/146/115
f 99/134/116 98/137/116 105/147/116 106/148/116
f 104/139/117 103/140/117 110/144/117 111/142/117
f 102/133/118 101/132/118 108/146/118 109/143/118
f 100/135/119 99/134/119 106/148/119 107/145/119
f 98/137/120 54/149/120 105/147/120
f 108/146/121 107/145/121 2/9/121 113/8/121
f 106/148/122 105/147/122 112/13/122 1/12/122
f 111/142/123 110/144/123 114/4/123 4/2/123
f 109/143/124 108/146/124 113/8/124 3/5/124
f 107/145/125 106/148/125 1/12/125 2/9/125
f 105/147/126 54/150/126 112/13/126
f 76/151/127 111/142/127 4/2/127
f 110/144/128 109/143/128 3/5/128 114/4/128
