####
#
# OBJ File Generated by Meshlab
#
####
# Object MainAxle.obj
#
# Vertices: 168
# Faces: 348
#
####
vn -0.000283 0.756968 0.653452
v 0.000000 0.007938 0.520700
vn -0.001030 0.749367 -0.662154
v 0.000000 0.007938 0.301676
vn -0.378581 0.655722 0.653226
v -0.003969 0.006874 0.520700
vn 0.084819 0.753635 -0.651798
v -0.000840 0.007893 0.301565
vn 0.182603 0.787829 -0.588202
v -0.001613 0.007772 0.301244
vn 0.332556 0.828314 -0.450892
v -0.002794 0.007430 0.300063
vn 0.470163 0.850250 -0.236687
v -0.003115 0.007301 0.299289
vn 0.485179 0.874405 0.004153
v -0.003226 0.007252 0.298450
vn 0.000010 0.757171 -0.653216
v 0.000000 0.007938 -0.520700
vn 0.332610 0.831455 0.445032
v -0.002794 0.007430 0.296837
vn 0.182448 0.787459 0.588746
v -0.001613 0.007772 0.295656
vn 0.084756 0.752590 0.653012
v -0.000838 0.007893 0.295335
vn 0.000292 0.748811 0.662784
v 0.000000 0.007938 0.295224
vn 0.378580 0.655685 -0.653264
v 0.003969 0.006874 -0.520700
vn -0.084768 0.752794 0.652776
v 0.000838 0.007893 0.295335
vn -0.182749 0.787441 0.588676
v 0.001613 0.007772 0.295656
vn -0.332807 0.828138 0.451029
v 0.002794 0.007430 0.296837
vn -0.470657 0.849977 0.236687
v 0.003115 0.007301 0.297611
vn -0.485174 0.874408 -0.004159
v 0.003226 0.007252 0.298450
vn 0.378730 0.655416 0.653448
v 0.003969 0.006874 0.520700
vn -0.461735 0.854187 -0.239092
v 0.003115 0.007301 0.299289
vn -0.333065 0.831312 -0.444959
v 0.002794 0.007430 0.300063
vn -0.182209 0.787634 -0.588585
v 0.001613 0.007772 0.301244
vn -0.084683 0.752673 -0.652926
v 0.000838 0.007893 0.301565
vn -0.000124 -0.757076 -0.653327
v 0.000000 -0.007938 -0.520700
vn -0.000801 -0.749173 0.662374
v 0.000000 -0.007938 -0.206426
vn -0.378559 -0.655660 -0.653302
v -0.003969 -0.006874 -0.520700
vn 0.084801 -0.753305 0.652182
v -0.000838 -0.007893 -0.206315
vn 0.182595 -0.787687 0.588395
v -0.001613 -0.007772 -0.205994
vn 0.332646 -0.828228 0.450983
v -0.002794 -0.007430 -0.204813
vn 0.470346 -0.850125 0.236775
v -0.003115 -0.007301 -0.204039
vn 0.465142 -0.885227 -0.004104
v -0.003226 -0.007252 -0.203200
vn 0.182770 -0.787409 0.588712
v -0.001613 -0.007772 0.295656
vn 0.332820 -0.828094 0.451101
v -0.002794 -0.007430 0.296837
vn 0.470633 -0.849967 0.236772
v -0.003115 -0.007301 0.297611
vn 0.485179 -0.874405 -0.004084
v -0.003226 -0.007252 0.298450
vn -0.378730 -0.655416 0.653448
v -0.003969 -0.006874 0.520700
vn 0.461783 -0.854187 -0.239001
v -0.003115 -0.007301 0.299289
vn 0.084832 -0.752820 0.652737
v -0.000838 -0.007893 0.295335
vn 0.460076 -0.855086 -0.239077
v -0.003115 -0.007301 -0.202361
vn -0.000341 -0.748854 0.662735
v 0.000000 -0.007938 0.295224
vn 0.332081 -0.831708 -0.444954
v -0.002794 -0.007430 -0.201587
vn 0.182362 -0.787517 -0.588695
v -0.001613 -0.007772 -0.200406
vn 0.333066 -0.831322 -0.444940
v -0.002794 -0.007430 0.300063
vn 0.182172 -0.787641 -0.588587
v -0.001613 -0.007772 0.301244
vn 0.000283 -0.756968 0.653451
v 0.000000 -0.007938 0.520700
vn 0.084615 -0.752682 -0.652924
v -0.000838 -0.007893 0.301565
vn 0.001143 -0.749342 -0.662182
v 0.000000 -0.007938 0.301676
vn 0.378565 -0.655669 0.653289
v 0.003969 -0.006874 0.520700
vn -0.084703 -0.753620 -0.651830
v 0.000838 -0.007893 0.301565
vn -0.182470 -0.787865 -0.588195
v 0.001613 -0.007772 0.301244
vn -0.473170 -0.880962 0.004065
v 0.003226 -0.007252 0.298450
vn -0.182722 -0.787419 -0.588714
v 0.001613 -0.007772 -0.200406
vn -0.332803 -0.828107 -0.451089
v 0.002794 -0.007430 -0.201587
vn -0.332555 -0.828301 -0.450917
v 0.002794 -0.007430 0.300063
vn -0.470144 -0.850239 -0.236766
v 0.003115 -0.007301 0.299289
vn -0.470620 -0.849981 -0.236746
v 0.003115 -0.007301 -0.202361
vn -0.485185 -0.874402 0.004008
v 0.003226 -0.007252 -0.203200
vn -0.331302 -0.832072 0.444855
v 0.002794 -0.007430 -0.204813
vn -0.182269 -0.787593 0.588621
v 0.001613 -0.007772 -0.205994
vn -0.084828 -0.752646 0.652938
v 0.000840 -0.007893 -0.206315
vn -0.084785 -0.752816 -0.652748
v 0.000838 -0.007893 -0.200085
vn -0.460069 -0.855093 0.239067
v 0.003115 -0.007301 0.297611
vn 0.000363 -0.748833 -0.662759
v 0.000000 -0.007938 -0.199974
vn -0.332086 -0.831708 0.444951
v 0.002794 -0.007430 0.296837
vn -0.182451 -0.787494 0.588697
v 0.001613 -0.007772 0.295656
vn 0.084699 -0.752643 -0.652958
v -0.000838 -0.007893 -0.200085
vn -0.084848 -0.752620 0.652965
v 0.000840 -0.007893 0.295335
vn 0.655722 0.378582 0.653226
v 0.006874 0.003969 0.520700
vn 0.655723 0.378581 -0.653226
v 0.006874 0.003969 -0.520700
vn 0.757163 0.000000 0.653226
v 0.007938 0.000000 0.520700
vn 0.757163 -0.000000 -0.653226
v 0.007938 0.000000 -0.520700
vn 0.655723 -0.378581 0.653226
v 0.006874 -0.003969 0.520700
vn 0.655722 -0.378582 -0.653226
v 0.006874 -0.003969 -0.520700
vn 0.378649 -0.655576 -0.653334
v 0.003969 -0.006874 -0.520700
vn -0.455353 -0.857506 0.239452
v 0.003115 -0.007301 -0.204039
vn -0.655722 -0.378582 0.653226
v -0.006874 -0.003969 0.520700
vn -0.655723 -0.378581 -0.653226
v -0.006874 -0.003969 -0.520700
vn -0.757163 -0.000000 0.653226
v -0.007938 0.000000 0.520700
vn -0.757163 0.000000 -0.653226
v -0.007938 0.000000 -0.520700
vn -0.655723 0.378581 0.653226
v -0.006874 0.003969 0.520700
vn -0.655722 0.378582 -0.653226
v -0.006874 0.003969 -0.520700
vn -0.378609 0.655668 -0.653265
v -0.003969 0.006874 -0.520700
vn 0.459818 0.855185 0.239219
v -0.003115 0.007301 0.297611
vn 0.847190 -0.519620 -0.110742
v -0.003175 0.005499 0.299020
vn 0.763737 -0.578237 -0.286963
v -0.002794 0.005702 0.300063
vn -0.000001 -0.637726 0.770264
v 0.000000 0.006350 0.520700
vn 0.562510 -0.654018 -0.505810
v -0.001613 0.006142 0.301244
vn 0.282164 -0.703735 -0.652028
v -0.000842 0.006294 0.301564
vn -0.000657 -0.722569 -0.691299
v 0.000000 0.006350 0.301676
vn -0.318864 -0.552293 0.770259
v 0.003175 0.005499 0.520700
vn -0.281550 -0.703214 -0.652856
v 0.000840 0.006294 0.301564
vn -0.561756 -0.654753 -0.505696
v 0.001613 0.006142 0.301244
vn -0.562208 -0.654594 0.505401
v 0.001613 0.006142 0.295656
vn -0.282370 -0.703773 0.651897
v 0.000843 0.006294 0.295336
vn 0.000002 -0.637734 -0.770257
v 0.000000 0.006350 -0.520700
vn -0.000037 -0.722943 0.690907
v 0.000000 0.006350 0.295224
vn 0.318862 -0.552286 -0.770265
v -0.003175 0.005499 -0.520700
vn 0.281606 -0.703778 0.652223
v -0.000840 0.006294 0.295335
vn 0.561805 -0.654900 0.505451
v -0.001613 0.006142 0.295656
vn -0.847192 0.519618 -0.110739
v 0.003175 -0.005499 0.299020
vn -0.763738 0.578232 -0.286970
v 0.002794 -0.005702 0.300063
vn 0.000001 0.637726 0.770263
v 0.000000 -0.006350 0.520700
vn -0.562387 0.654081 -0.505864
v 0.001613 -0.006142 0.301244
vn -0.281936 0.703604 0.652267
v 0.000842 -0.006294 0.295336
vn -0.561907 0.654807 0.505458
v 0.001613 -0.006142 0.295656
vn -0.838720 0.533394 -0.109726
v 0.003175 -0.005499 -0.202630
vn -0.000513 0.722876 0.690977
v 0.000000 -0.006350 0.295224
vn -0.762424 0.580326 -0.286238
v 0.002794 -0.005702 -0.201587
vn -0.562094 0.654550 -0.505583
v 0.001613 -0.006142 -0.200406
vn 0.282250 0.703595 -0.652142
v -0.000843 -0.006294 -0.200086
vn 0.561941 0.654800 -0.505430
v -0.001613 -0.006142 -0.200406
vn 0.838721 0.533392 0.109727
v -0.003175 -0.005499 0.297880
vn 0.000710 0.722894 -0.690958
v 0.000000 -0.006350 -0.199974
vn 0.762426 0.580321 0.286241
v -0.002794 -0.005702 0.296837
vn 0.562128 0.654536 0.505565
v -0.001613 -0.006142 0.295656
vn -0.281737 0.703856 -0.652082
v 0.000840 -0.006294 -0.200085
vn 0.281828 0.703843 0.652057
v -0.000840 -0.006294 0.295336
vn -0.281798 0.703784 -0.652134
v 0.000840 -0.006294 0.301565
vn 0.001123 0.722578 -0.691288
v 0.000000 -0.006350 0.301676
vn 0.318864 0.552290 0.770260
v -0.003175 -0.005499 0.520700
vn 0.282126 0.703193 -0.652629
v -0.000843 -0.006294 0.301564
vn 0.561874 0.654708 -0.505624
v -0.001613 -0.006142 0.301244
vn 0.000001 0.637729 -0.770261
v 0.000000 -0.006350 -0.520700
vn -0.000710 0.722747 0.691113
v 0.000000 -0.006350 -0.206426
vn -0.318865 0.552282 -0.770266
v 0.003175 -0.005499 -0.520700
vn -0.281904 0.703401 0.652501
v 0.000842 -0.006294 -0.206314
vn -0.561874 0.654758 0.505558
v 0.001613 -0.006142 -0.205994
vn 0.844900 0.523402 0.110428
v -0.003175 -0.005499 -0.203770
vn 0.763017 0.579379 0.286573
v -0.002794 -0.005702 -0.204813
vn 0.562263 0.654314 0.505701
v -0.001613 -0.006142 -0.205994
vn 0.281881 0.703808 0.652071
v -0.000840 -0.006294 -0.206314
vn 0.760919 -0.585068 0.280530
v -0.002794 0.005702 0.296837
vn 0.837697 -0.535389 0.107812
v -0.003175 0.005499 0.297880
vn 0.552286 -0.318854 -0.770268
v -0.005499 0.003175 -0.520700
vn 0.318864 -0.552289 0.770262
v -0.003175 0.005499 0.520700
vn 0.552278 -0.318822 0.770287
v -0.005499 0.003175 0.520700
vn 0.911994 -0.410193 0.002894
v -0.003226 0.005470 0.298450
vn -0.760908 -0.585069 -0.280558
v 0.002794 0.005702 0.300063
vn -0.843707 -0.525736 -0.108444
v 0.003175 0.005499 0.299020
vn -0.552274 -0.318821 0.770290
v 0.005499 0.003175 0.520700
vn -0.552298 -0.318864 -0.770255
v 0.005499 0.003175 -0.520700
vn -0.911993 -0.410194 -0.003004
v 0.003226 0.005470 0.298450
vn -0.318858 -0.552286 -0.770266
v 0.003175 0.005499 -0.520700
vn -0.838728 -0.533388 0.109691
v 0.003175 0.005499 0.297880
vn -0.762022 -0.580967 0.286006
v 0.002794 0.005702 0.296837
vn -0.637731 -0.000001 0.770259
v 0.006350 0.000000 0.520700
vn -0.637731 0.000001 -0.770259
v 0.006350 0.000000 -0.520700
vn -0.552278 0.318822 0.770287
v 0.005499 -0.003175 0.520700
vn -0.552280 0.318836 -0.770279
v 0.005499 -0.003175 -0.520700
vn -0.760909 0.585073 0.280550
v 0.002794 -0.005702 -0.204813
vn -0.841385 0.529492 0.108211
v 0.003175 -0.005499 -0.203770
vn -0.760917 0.585069 0.280537
v 0.002794 -0.005702 0.296837
vn -0.835132 0.539432 0.107555
v 0.003175 -0.005499 0.297880
vn -0.912004 0.410172 0.002978
v 0.003226 -0.005470 -0.203200
vn -0.911998 0.410184 0.002868
v 0.003226 -0.005470 0.298450
vn -0.318864 0.552289 0.770262
v 0.003175 -0.005499 0.520700
vn 0.912002 0.410175 -0.002997
v -0.003226 -0.005470 0.298450
vn 0.552274 0.318821 0.770290
v -0.005499 -0.003175 0.520700
vn 0.843712 0.525726 -0.108457
v -0.003175 -0.005499 0.299020
vn 0.760908 0.585069 -0.280558
v -0.002794 -0.005702 0.300063
vn 0.318864 0.552289 -0.770262
v -0.003175 -0.005499 -0.520700
vn 0.552283 0.318835 -0.770278
v -0.005499 -0.003175 -0.520700
vn 0.911998 0.410184 -0.002887
v -0.003226 -0.005470 -0.203200
vn 0.760914 0.585070 -0.280538
v -0.002794 -0.005702 -0.201587
vn 0.835129 0.539438 -0.107549
v -0.003175 -0.005499 -0.202630
vn 0.637731 0.000001 0.770259
v -0.006350 0.000000 0.520700
vn 0.637731 -0.000001 -0.770259
v -0.006350 0.000000 -0.520700
# 168 vertices, 0 vertices normals

f 1//1 2//2 3//3
f 3//3 2//2 4//4
f 3//3 4//4 5//5
f 5//5 6//6 3//3
f 3//3 6//6 7//7
f 3//3 7//7 8//8
f 9//9 10//10 11//11
f 11//11 12//12 9//9
f 9//9 12//12 13//13
f 9//9 13//13 14//14
f 14//14 13//13 15//15
f 14//14 15//15 16//16
f 16//16 17//17 14//14
f 14//14 17//17 18//18
f 14//14 18//18 19//19
f 20//20 19//19 21//21
f 21//21 22//22 20//20
f 20//20 22//22 23//23
f 20//20 23//23 1//1
f 1//1 23//23 24//24
f 1//1 24//24 2//2
f 25//25 26//26 27//27
f 27//27 26//26 28//28
f 27//27 28//28 29//29
f 29//29 30//30 27//27
f 27//27 30//30 31//31
f 27//27 31//31 32//32
f 32//32 33//33 34//34
f 32//32 34//34 27//27
f 27//27 34//34 35//35
f 27//27 35//35 36//36
f 37//37 36//36 38//38
f 33//33 32//32 39//39
f 39//39 32//32 40//40
f 39//39 40//40 41//41
f 41//41 40//40 42//42
f 41//41 42//42 43//43
f 38//38 44//44 37//37
f 37//37 44//44 45//45
f 37//37 45//45 46//46
f 45//45 47//47 46//46
f 46//46 47//47 48//48
f 46//46 48//48 49//49
f 49//49 48//48 50//50
f 49//49 50//50 51//51
f 52//52 53//53 54//54
f 51//51 55//55 49//49
f 49//49 55//55 56//56
f 49//49 56//56 52//52
f 52//52 54//54 49//49
f 49//49 54//54 57//57
f 49//49 57//57 58//58
f 59//59 60//60 25//25
f 25//25 60//60 61//61
f 25//25 61//61 26//26
f 53//53 52//52 62//62
f 62//62 52//52 63//63
f 62//62 63//63 64//64
f 64//64 63//63 65//65
f 64//64 65//65 66//66
f 43//43 67//67 41//41
f 41//41 67//67 64//64
f 41//41 64//64 68//68
f 68//68 64//64 66//66
f 19//19 20//20 14//14
f 14//14 20//20 69//69
f 14//14 69//69 70//70
f 70//70 69//69 71//71
f 70//70 71//71 72//72
f 72//72 71//71 73//73
f 72//72 73//73 74//74
f 74//74 73//73 49//49
f 74//74 49//49 75//75
f 75//75 49//49 58//58
f 75//75 58//58 25//25
f 25//25 58//58 76//76
f 25//25 76//76 59//59
f 36//36 37//37 27//27
f 27//27 37//37 77//77
f 27//27 77//77 78//78
f 78//78 77//77 79//79
f 78//78 79//79 80//80
f 80//80 79//79 81//81
f 80//80 81//81 82//82
f 82//82 81//81 3//3
f 82//82 3//3 83//83
f 83//83 3//3 8//8
f 83//83 8//8 9//9
f 9//9 8//8 84//84
f 9//9 84//84 10//10
f 85//85 86//86 87//87
f 87//87 86//86 88//88
f 88//88 89//89 87//87
f 87//87 89//89 90//90
f 87//87 90//90 91//91
f 91//91 90//90 92//92
f 91//91 92//92 93//93
f 94//94 95//95 96//96
f 96//96 95//95 97//97
f 96//96 97//97 98//98
f 98//98 97//97 99//99
f 98//98 99//99 100//100
f 101//101 102//102 103//103
f 103//103 102//102 104//104
f 105//105 106//106 107//107
f 105//105 107//107 108//108
f 108//108 107//107 109//109
f 108//108 109//109 110//110
f 111//111 112//112 113//113
f 111//111 113//113 114//114
f 114//114 113//113 115//115
f 114//114 115//115 116//116
f 110//110 117//117 108//108
f 108//108 117//117 114//114
f 108//108 114//114 118//118
f 118//118 114//114 116//116
f 104//104 119//119 103//103
f 103//103 119//119 120//120
f 103//103 120//120 121//121
f 121//121 120//120 122//122
f 121//121 122//122 123//123
f 124//124 125//125 126//126
f 126//126 125//125 127//127
f 126//126 127//127 128//128
f 129//129 130//130 124//124
f 130//130 131//131 124//124
f 124//124 131//131 132//132
f 124//124 132//132 125//125
f 100//100 133//133 98//98
f 98//98 133//133 134//134
f 98//98 134//134 135//135
f 87//87 136//136 85//85
f 85//85 136//136 137//137
f 85//85 137//137 138//138
f 93//93 139//139 91//91
f 91//91 139//139 140//140
f 91//91 140//140 141//141
f 142//142 143//143 144//144
f 144//144 143//143 145//145
f 144//144 145//145 96//96
f 96//96 145//145 146//146
f 96//96 146//146 94//94
f 140//140 143//143 141//141
f 141//141 143//143 142//142
f 141//141 142//142 147//147
f 147//147 142//142 148//148
f 147//147 148//148 149//149
f 149//149 148//148 150//150
f 128//128 151//151 126//126
f 126//126 151//151 152//152
f 126//126 152//152 150//150
f 106//106 153//153 107//107
f 107//107 153//153 154//154
f 107//107 154//154 155//155
f 155//155 154//154 156//156
f 152//152 155//155 150//150
f 150//150 155//155 156//156
f 150//150 156//156 149//149
f 149//149 156//156 101//101
f 149//149 101//101 157//157
f 157//157 101//101 103//103
f 158//158 159//159 160//160
f 160//160 159//159 121//121
f 160//160 121//121 161//161
f 161//161 121//121 123//123
f 124//124 162//162 129//129
f 129//129 162//162 163//163
f 129//129 163//163 164//164
f 112//112 165//165 113//113
f 113//113 165//165 166//166
f 113//113 166//166 158//158
f 158//158 166//166 164//164
f 158//158 164//164 159//159
f 159//159 164//164 163//163
f 159//159 163//163 167//167
f 167//167 163//163 168//168
f 167//167 168//168 137//137
f 137//137 168//168 135//135
f 137//137 135//135 138//138
f 138//138 135//135 134//134
f 141//141 69//69 91//91
f 91//91 69//69 20//20
f 91//91 20//20 87//87
f 87//87 20//20 1//1
f 87//87 1//1 136//136
f 136//136 1//1 3//3
f 136//136 3//3 137//137
f 137//137 3//3 81//81
f 137//137 81//81 167//167
f 167//167 81//81 79//79
f 167//167 79//79 159//159
f 159//159 79//79 77//77
f 159//159 77//77 121//121
f 121//121 77//77 37//37
f 121//121 37//37 103//103
f 103//103 37//37 46//46
f 103//103 46//46 157//157
f 157//157 46//46 49//49
f 157//157 49//49 149//149
f 149//149 49//49 73//73
f 149//149 73//73 147//147
f 147//147 73//73 71//71
f 147//147 71//71 141//141
f 141//141 71//71 69//69
f 135//135 82//82 98//98
f 98//98 82//82 83//83
f 98//98 83//83 96//96
f 96//96 83//83 9//9
f 96//96 9//9 144//144
f 144//144 9//9 14//14
f 144//144 14//14 142//142
f 142//142 14//14 70//70
f 142//142 70//70 148//148
f 148//148 70//70 72//72
f 148//148 72//72 150//150
f 150//150 72//72 74//74
f 150//150 74//74 126//126
f 126//126 74//74 75//75
f 126//126 75//75 124//124
f 124//124 75//75 25//25
f 124//124 25//25 162//162
f 162//162 25//25 27//27
f 162//162 27//27 163//163
f 163//163 27//27 78//78
f 163//163 78//78 168//168
f 168//168 78//78 80//80
f 168//168 80//80 135//135
f 135//135 80//80 82//82
f 110//110 109//109 53//53
f 53//53 109//109 54//54
f 54//54 109//109 57//57
f 57//57 109//109 107//107
f 57//57 107//107 58//58
f 58//58 107//107 155//155
f 58//58 155//155 76//76
f 76//76 155//155 152//152
f 76//76 152//152 59//59
f 152//152 151//151 59//59
f 59//59 151//151 128//128
f 59//59 128//128 60//60
f 60//60 128//128 61//61
f 61//61 128//128 127//127
f 61//61 127//127 26//26
f 26//26 127//127 125//125
f 26//26 125//125 28//28
f 28//28 125//125 132//132
f 28//28 132//132 29//29
f 132//132 131//131 29//29
f 29//29 131//131 130//130
f 29//29 130//130 30//30
f 30//30 130//130 31//31
f 31//31 130//130 129//129
f 31//31 129//129 32//32
f 32//32 129//129 164//164
f 32//32 164//164 40//40
f 40//40 164//164 166//166
f 40//40 166//166 42//42
f 42//42 166//166 165//165
f 42//42 165//165 112//112
f 110//110 53//53 117//117
f 117//117 53//53 62//62
f 117//117 62//62 114//114
f 114//114 62//62 64//64
f 114//114 64//64 111//111
f 111//111 64//64 67//67
f 111//111 67//67 112//112
f 112//112 67//67 43//43
f 112//112 43//43 42//42
f 104//104 102//102 51//51
f 51//51 102//102 55//55
f 55//55 102//102 56//56
f 56//56 102//102 101//101
f 56//56 101//101 52//52
f 52//52 101//101 156//156
f 52//52 156//156 63//63
f 63//63 156//156 154//154
f 63//63 154//154 65//65
f 154//154 153//153 65//65
f 65//65 153//153 106//106
f 65//65 106//106 66//66
f 66//66 106//106 68//68
f 68//68 106//106 105//105
f 68//68 105//105 41//41
f 41//41 105//105 108//108
f 41//41 108//108 39//39
f 39//39 108//108 118//118
f 39//39 118//118 33//33
f 118//118 116//116 33//33
f 33//33 116//116 115//115
f 33//33 115//115 34//34
f 34//34 115//115 35//35
f 35//35 115//115 113//113
f 35//35 113//113 36//36
f 36//36 113//113 158//158
f 36//36 158//158 38//38
f 38//38 158//158 160//160
f 38//38 160//160 44//44
f 44//44 160//160 161//161
f 44//44 161//161 123//123
f 104//104 51//51 119//119
f 119//119 51//51 50//50
f 119//119 50//50 120//120
f 120//120 50//50 48//48
f 120//120 48//48 122//122
f 122//122 48//48 47//47
f 122//122 47//47 123//123
f 123//123 47//47 45//45
f 123//123 45//45 44//44
f 94//94 146//146 16//16
f 16//16 146//146 17//17
f 17//17 146//146 18//18
f 18//18 146//146 145//145
f 18//18 145//145 19//19
f 19//19 145//145 143//143
f 19//19 143//143 21//21
f 21//21 143//143 140//140
f 21//21 140//140 22//22
f 140//140 139//139 22//22
f 22//22 139//139 93//93
f 22//22 93//93 23//23
f 23//23 93//93 24//24
f 24//24 93//93 92//92
f 24//24 92//92 2//2
f 2//2 92//92 90//90
f 2//2 90//90 4//4
f 4//4 90//90 89//89
f 4//4 89//89 5//5
f 89//89 88//88 5//5
f 5//5 88//88 86//86
f 5//5 86//86 6//6
f 6//6 86//86 7//7
f 7//7 86//86 85//85
f 7//7 85//85 8//8
f 8//8 85//85 138//138
f 8//8 138//138 84//84
f 84//84 138//138 134//134
f 84//84 134//134 10//10
f 10//10 134//134 133//133
f 10//10 133//133 100//100
f 94//94 16//16 95//95
f 95//95 16//16 15//15
f 95//95 15//15 97//97
f 97//97 15//15 13//13
f 97//97 13//13 99//99
f 99//99 13//13 12//12
f 99//99 12//12 100//100
f 100//100 12//12 11//11
f 100//100 11//11 10//10
# 348 faces, 0 coords texture

# End of File
