####
#
# OBJ File Generated by Meshlab
#
####
# Object rudder_convex_hull.obj
#
# Vertices: 118
# Faces: 232
#
####
vn -0.756266 0.385541 0.528601
v -0.045075 -0.006127 0.101600
vn -0.295004 -0.001482 -0.955495
v 0.013564 -0.000262 -0.101600
vn 0.745317 0.084099 0.661385
v 0.045150 0.002969 0.101600
vn 0.077129 -0.713886 0.696001
v 0.018862 -0.006554 0.101600
vn -0.078444 0.709202 0.700628
v 0.015358 0.006735 0.101600
vn 0.343067 -0.928793 -0.140176
v 0.040061 -0.001031 -0.088900
vn -0.199469 0.969378 -0.143240
v 0.010033 0.003144 -0.088900
vn 0.251416 -0.668660 0.699774
v 0.038230 -0.002698 0.101600
vn -0.009170 -0.988954 -0.147938
v 0.006069 -0.004312 -0.088900
vn 0.127275 0.982195 -0.138180
v 0.038575 0.005949 -0.088900
vn -0.157991 0.699171 0.697280
v -0.020486 0.000162 0.101600
vn 0.465704 -0.556945 0.687701
v 0.043543 0.000049 0.101600
vn 0.124933 -0.706684 0.696412
v 0.029181 -0.005089 0.101600
vn 0.099879 -0.986038 -0.133239
v 0.025795 -0.003664 -0.088900
vn -0.013399 -0.717635 0.696291
v -0.017882 -0.007609 0.101600
vn -0.866875 -0.085941 -0.491062
v -0.016526 -0.003325 -0.088900
vn 0.609352 0.084241 -0.788412
v 0.037716 0.002209 -0.101600
vn 0.958572 0.128443 -0.254250
v 0.045150 0.002970 -0.088900
vn -0.080176 0.987626 -0.134785
v 0.028618 0.005921 -0.088900
vn 0.084695 0.714609 0.694378
v 0.036280 0.007245 0.101600
vn -0.135834 0.704029 0.697059
v -0.002900 0.003880 0.101600
vn 0.311770 -0.651025 0.692074
v 0.040406 -0.001817 0.101600
vn 0.170148 -0.695702 0.697888
v 0.032275 -0.004430 0.101600
vn 0.012728 -0.716778 0.697186
v 0.000634 -0.007610 0.101600
vn 0.028951 -0.615395 -0.787687
v 0.019649 -0.000755 -0.101600
vn 0.141651 -0.980867 -0.133546
v 0.032425 -0.002849 -0.088900
vn -0.118756 0.600751 -0.790567
v 0.016703 0.000939 -0.101600
vn -0.253171 0.949704 -0.184301
v -0.008757 -0.001164 -0.088900
vn -0.034943 -0.717161 0.696031
v -0.034502 -0.007029 0.101600
vn 0.600376 -0.779777 -0.177470
v 0.043825 0.000806 -0.088900
vn 0.619358 -0.379779 0.687141
v 0.044570 0.001142 0.101600
vn 0.560449 0.804416 -0.197008
v 0.044003 0.004510 -0.088900
vn -0.142408 0.980683 -0.134092
v 0.019731 0.004868 -0.088900
vn -0.007846 0.612369 -0.790533
v 0.033291 0.002747 -0.101600
vn -0.012776 0.713600 0.700437
v 0.026932 0.007606 0.101600
vn 0.435842 -0.887267 -0.150992
v 0.041928 -0.000291 -0.088900
vn 0.213226 -0.683651 0.697965
v 0.037105 -0.003090 0.101600
vn 0.039952 -0.715115 0.697864
v 0.009198 -0.007292 0.101600
vn 0.047949 -0.989747 -0.134540
v 0.020950 -0.004019 -0.088900
vn -0.014583 -0.602895 -0.797687
v 0.016134 -0.000785 -0.101600
vn 0.149787 -0.597125 -0.788039
v 0.034941 0.001090 -0.101600
vn 0.231318 -0.963735 -0.133067
v 0.036396 -0.002075 -0.088900
vn -0.200389 0.467260 -0.861111
v 0.013972 0.000127 -0.101600
vn -0.175279 0.695744 0.696576
v -0.028136 -0.001663 0.101600
vn -0.226458 0.960806 -0.159904
v -0.001244 0.000688 -0.088900
vn -0.149436 0.569676 -0.808170
v 0.015206 0.000569 -0.101600
vn -0.536524 -0.633187 0.557869
v -0.044993 -0.006396 0.101600
vn -0.042956 -0.984286 -0.171279
v -0.008474 -0.003897 -0.088900
vn 0.382041 -0.609375 0.694772
v 0.042738 -0.000515 0.101600
vn 0.798955 -0.561724 -0.214795
v 0.044709 0.001658 -0.088900
vn 0.713184 -0.207688 0.669503
v 0.045060 0.002130 0.101600
vn 0.827448 0.509068 -0.237020
v 0.044933 0.003586 -0.088900
vn 0.212270 0.966100 -0.146942
v 0.041336 0.005509 -0.088900
vn 0.313158 0.654242 0.688403
v 0.042982 0.005507 0.101600
vn -0.113400 0.984490 -0.133867
v 0.024852 0.005547 -0.088900
vn -0.178537 0.974150 -0.138404
v 0.014539 0.004004 -0.088900
vn -0.109422 0.707629 0.698060
v 0.007864 0.005739 0.101600
vn -0.008994 0.990967 -0.133803
v 0.034118 0.006158 -0.088900
vn 0.077416 0.610269 -0.788402
v 0.036720 0.002608 -0.101600
vn -0.056148 0.713275 0.698632
v 0.020892 0.007287 0.101600
vn 0.389222 -0.480940 -0.785623
v 0.037560 0.001972 -0.101600
vn 0.072152 -0.988285 -0.134490
v 0.023325 -0.003861 -0.088900
vn 0.012337 -0.990094 -0.139862
v 0.010796 -0.004312 -0.088900
vn -0.063216 -0.538776 -0.840074
v 0.014249 -0.000607 -0.101600
vn 0.075938 -0.609159 -0.789404
v 0.028006 -0.000054 -0.101600
vn 0.176774 -0.975163 -0.133444
v 0.032966 -0.002761 -0.088900
vn 0.262201 -0.928510 -0.262905
v 0.036978 -0.000141 -0.095250
vn 0.294049 -0.946000 -0.136450
v 0.039683 -0.001160 -0.088900
vn -0.397127 0.289937 -0.870762
v 0.009820 -0.000581 -0.100013
vn -0.228408 0.924238 -0.305963
v 0.013260 0.000618 -0.100013
vn -0.251754 0.900309 -0.355054
v 0.000991 -0.000900 -0.095250
vn -0.958341 -0.244424 -0.147785
v -0.030837 -0.004804 0.006346
vn -0.062808 -0.979666 -0.190552
v -0.009253 -0.003860 -0.088900
vn -0.027632 -0.986906 -0.158913
v 0.000875 -0.004230 -0.088900
vn 0.939249 -0.240440 -0.244950
v 0.045117 0.002508 -0.088900
vn 0.546556 -0.474188 0.690234
v 0.044363 0.000863 0.101600
vn 0.780661 0.391981 -0.486743
v 0.041341 0.002881 -0.095250
vn 0.647702 0.622027 -0.439960
v 0.041154 0.003142 -0.095250
vn 0.638303 0.395670 0.660314
v 0.044849 0.003843 0.101600
vn 0.155992 0.702623 0.694253
v 0.039538 0.006694 0.101600
vn 0.347187 0.923306 -0.164221
v 0.042346 0.005219 -0.088900
vn -0.090756 0.707325 0.701038
v 0.014081 0.006580 0.101600
vn -0.088365 0.610284 -0.787239
v 0.021175 0.001723 -0.101600
vn -0.163324 0.977092 -0.136442
v 0.017053 0.004446 -0.088900
vn -0.049308 0.989683 -0.134521
v 0.030237 0.006026 -0.088900
vn 0.024207 0.716812 0.696846
v 0.031037 0.007610 0.101600
vn 0.034275 0.612642 -0.789617
v 0.035314 0.002726 -0.101600
vn 0.632496 -0.676834 -0.376623
v 0.040885 0.001544 -0.095250
vn 0.768893 -0.460437 -0.443624
v 0.041272 0.001992 -0.095250
vn 0.223440 -0.580521 -0.782987
v 0.037021 0.001692 -0.101600
vn 0.054971 -0.612470 -0.788580
v 0.025061 -0.000376 -0.101600
vn 0.008567 -0.612393 -0.790507
v 0.017798 -0.000802 -0.101600
vn -0.087632 -0.908777 -0.407977
v 0.011281 -0.001052 -0.100013
vn -0.136009 -0.408843 -0.902413
v 0.013904 -0.000518 -0.101600
vn 0.187947 -0.947606 -0.258302
v 0.034229 -0.000803 -0.095250
vn -0.365495 0.598810 -0.712629
v -0.008951 -0.002480 -0.092075
vn -0.230499 0.922809 -0.308697
v 0.003824 -0.000146 -0.095250
vn 0.855869 0.101952 -0.507044
v 0.041433 0.002589 -0.095250
vn 0.274515 0.549012 -0.789447
v 0.037466 0.002432 -0.101600
vn 0.450587 0.580556 0.678179
v 0.043517 0.005194 0.101600
vn 0.224260 0.682619 0.695513
v 0.040760 0.006356 0.101600
vn -0.055994 0.612467 -0.788511
v 0.027006 0.002396 -0.101600
vn -0.028089 0.612946 -0.789625
v 0.031683 0.002704 -0.101600
vn -0.032410 0.712074 0.701356
v 0.025924 0.007572 0.101600
vn 0.078183 0.987670 -0.135629
v 0.038256 0.005980 -0.088900
vn 0.010491 0.611857 -0.790899
v 0.034762 0.002743 -0.101600
vn 0.835249 -0.267739 -0.480286
v 0.041402 0.002285 -0.095250
vn -0.069047 -0.928155 -0.365734
v 0.001121 -0.002182 -0.095250
vn 0.120903 -0.600421 -0.790492
v 0.034138 0.000915 -0.101600
vn 0.428939 0.829720 -0.357178
v 0.040685 0.003502 -0.095250
vn 0.135955 0.594035 -0.792867
v 0.037111 0.002538 -0.101600
vn 0.280741 0.947062 -0.155749
v 0.042015 0.005324 -0.088900
vn -0.046433 0.965074 -0.257830
v 0.030998 0.004367 -0.095250
vn -0.019394 0.965907 -0.258163
v 0.033691 0.004452 -0.095250
vn 0.036317 0.990305 -0.134076
v 0.035551 0.006137 -0.088900
vn -0.075101 -0.922329 -0.379038
v 0.007894 -0.001429 -0.098425
vn 0.099005 -0.605507 -0.789658
v 0.031907 0.000503 -0.101600
vn 0.139531 -0.956144 -0.257526
v 0.031571 -0.001265 -0.095250
# 118 vertices, 0 vertices normals

f 21//21 7//7 11//11
f 24//24 15//15 9//9
f 26//26 13//13 4//4
f 26//26 4//4 14//14
f 28//28 16//16 1//1
f 36//36 22//22 8//8
f 36//36 8//8 6//6
f 37//37 6//6 8//8
f 39//39 38//38 24//24
f 42//42 23//23 13//13
f 42//42 37//37 23//23
f 44//44 28//28 1//1
f 45//45 11//11 7//7
f 45//45 44//44 11//11
f 45//45 28//28 44//44
f 45//45 7//7 27//27
f 46//46 43//43 16//16
f 49//49 30//30 12//12
f 49//49 36//36 30//30
f 49//49 22//22 36//36
f 50//50 12//12 30//30
f 51//51 31//31 50//50
f 53//53 10//10 20//20
f 56//56 27//27 7//7
f 56//56 7//7 21//21
f 59//59 10//10 53//53
f 60//60 55//55 5//5
f 60//60 19//19 55//55
f 61//61 30//30 36//36
f 62//62 14//14 4//4
f 62//62 4//4 38//38
f 62//62 38//38 39//39
f 62//62 39//39 25//25
f 63//63 39//39 24//24
f 63//63 24//24 9//9
f 63//63 25//25 39//39
f 65//65 26//26 14//14
f 66//66 42//42 13//13
f 66//66 13//13 26//26
f 67//67 42//42 41//41
f 68//68 6//6 37//37
f 68//68 37//37 42//42
f 68//68 42//42 67//67
f 69//69 43//43 2//2
f 69//69 2//2 16//16
f 70//70 45//45 27//27
f 70//70 27//27 46//46
f 71//71 46//46 16//16
f 71//71 16//16 28//28
f 71//71 28//28 46//46
f 72//72 47//47 1//1
f 72//72 1//1 16//16
f 72//72 16//16 47//47
f 73//73 47//47 16//16
f 73//73 48//48 29//29
f 73//73 29//29 47//47
f 73//73 40//40 48//48
f 74//74 15//15 29//29
f 74//74 29//29 48//48
f 74//74 9//9 15//15
f 74//74 48//48 40//40
f 74//74 40//40 9//9
f 75//75 51//51 50//50
f 75//75 18//18 3//3
f 75//75 3//3 51//51
f 76//76 50//50 31//31
f 76//76 12//12 50//50
f 77//77 52//52 18//18
f 78//78 32//32 52//52
f 78//78 77//77 17//17
f 78//78 52//52 77//77
f 79//79 3//3 18//18
f 79//79 18//18 52//52
f 80//80 53//53 20//20
f 81//81 54//54 32//32
f 82//82 55//55 33//33
f 82//82 5//5 55//55
f 82//82 33//33 57//57
f 83//83 33//33 55//55
f 84//84 56//56 21//21
f 84//84 21//21 57//57
f 84//84 57//57 33//33
f 84//84 33//33 83//83
f 84//84 83//83 27//27
f 84//84 27//27 56//56
f 85//85 35//35 58//58
f 85//85 19//19 60//60
f 86//86 58//58 35//35
f 88//88 61//61 50//50
f 88//88 50//50 30//30
f 88//88 30//30 61//61
f 89//89 61//61 17//17
f 89//89 50//50 61//61
f 89//89 75//75 50//50
f 90//90 61//61 36//36
f 90//90 36//36 6//6
f 90//90 6//6 68//68
f 90//90 68//68 67//67
f 90//90 67//67 41//41
f 91//91 62//62 25//25
f 91//91 14//14 62//62
f 91//91 65//65 14//14
f 92//92 25//25 63//63
f 92//92 63//63 9//9
f 92//92 9//9 40//40
f 93//93 64//64 40//40
f 93//93 16//16 64//64
f 94//94 64//64 16//16
f 94//94 16//16 2//2
f 95//95 42//42 66//66
f 96//96 69//69 16//16
f 96//96 16//16 43//43
f 96//96 43//43 69//69
f 97//97 28//28 45//45
f 97//97 45//45 70//70
f 97//97 70//70 46//46
f 97//97 46//46 28//28
f 98//98 75//75 17//17
f 98//98 18//18 75//75
f 98//98 77//77 18//18
f 98//98 17//17 77//77
f 99//99 78//78 17//17
f 99//99 32//32 78//78
f 100//100 79//79 52//52
f 100//100 52//52 32//32
f 100//100 32//32 54//54
f 101//101 54//54 81//81
f 102//102 83//83 55//55
f 102//102 55//55 19//19
f 103//103 102//102 19//19
f 103//103 19//19 85//85
f 104//104 85//85 60//60
f 104//104 35//35 85//85
f 104//104 86//86 35//35
f 104//104 60//60 5//5
f 104//104 20//20 86//86
f 104//104 5//5 82//82
f 104//104 101//101 80//80
f 104//104 80//80 20//20
f 104//104 82//82 57//57
f 104//104 57//57 21//21
f 104//104 21//21 11//11
f 104//104 11//11 44//44
f 104//104 44//44 1//1
f 104//104 1//1 47//47
f 104//104 47//47 29//29
f 104//104 29//29 15//15
f 104//104 15//15 24//24
f 104//104 24//24 38//38
f 104//104 38//38 4//4
f 104//104 4//4 13//13
f 104//104 13//13 23//23
f 104//104 23//23 37//37
f 104//104 37//37 8//8
f 104//104 8//8 22//22
f 104//104 22//22 49//49
f 104//104 49//49 12//12
f 104//104 12//12 76//76
f 104//104 76//76 31//31
f 104//104 31//31 51//51
f 104//104 51//51 3//3
f 104//104 3//3 79//79
f 104//104 79//79 100//100
f 104//104 100//100 54//54
f 104//104 54//54 101//101
f 105//105 86//86 20//20
f 105//105 20//20 10//10
f 105//105 10//10 59//59
f 105//105 59//59 87//87
f 106//106 34//34 58//58
f 107//107 89//89 17//17
f 107//107 17//17 75//75
f 107//107 75//75 89//89
f 108//108 73//73 16//16
f 108//108 40//40 73//73
f 109//109 41//41 42//42
f 109//109 42//42 95//95
f 110//110 99//99 81//81
f 110//110 81//81 32//32
f 110//110 32//32 99//99
f 111//111 59//59 53//53
f 112//112 101//101 81//81
f 112//112 111//111 53//53
f 112//112 53//53 80//80
f 112//112 80//80 101//101
f 112//112 81//81 99//99
f 112//112 99//99 111//111
f 113//113 103//103 85//85
f 113//113 85//85 58//58
f 113//113 58//58 103//103
f 114//114 103//103 58//58
f 114//114 58//58 34//34
f 114//114 34//34 103//103
f 115//115 58//58 86//86
f 115//115 86//86 105//105
f 115//115 105//105 87//87
f 115//115 106//106 58//58
f 115//115 87//87 106//106
f 116//116 108//108 16//16
f 116//116 16//16 93//93
f 116//116 93//93 40//40
f 116//116 40//40 108//108
f 117//117 109//109 95//95
f 117//117 95//95 66//66
f 117//117 66//66 26//26
f 117//117 41//41 109//109
f 117//117 65//65 91//91
f 117//117 90//90 41//41
f 117//117 91//91 25//25
f 117//117 61//61 90//90
f 117//117 25//25 92//92
f 117//117 17//17 61//61
f 117//117 92//92 40//40
f 117//117 111//111 99//99
f 117//117 99//99 17//17
f 117//117 40//40 64//64
f 117//117 64//64 94//94
f 117//117 94//94 2//2
f 117//117 2//2 43//43
f 117//117 43//43 46//46
f 117//117 46//46 27//27
f 117//117 27//27 83//83
f 117//117 83//83 102//102
f 117//117 102//102 103//103
f 117//117 103//103 34//34
f 117//117 34//34 106//106
f 117//117 106//106 87//87
f 117//117 87//87 59//59
f 117//117 59//59 111//111
f 118//118 117//117 26//26
f 118//118 26//26 65//65
f 118//118 65//65 117//117
# 232 faces, 0 coords texture

# End of File
