####
#
# OBJ File Generated by Meshlab
#
####
# Object rudder_colored.obj
#
# Vertices: 118
# Faces: 232
#
####
mtllib ./rudder_colored.obj.mtl

vn -0.135800 0.703998 0.697098
v -0.002900 0.003880 0.101600
vn -0.199400 0.969399 -0.143200
v 0.010033 0.003144 -0.088900
vn -0.157994 0.699175 0.697275
v -0.020486 0.000162 0.101600
vn 0.012700 -0.716782 0.697182
v 0.000634 -0.007610 0.101600
vn -0.013400 -0.717613 0.696313
v -0.017882 -0.007609 0.101600
vn -0.009200 -0.988960 -0.147894
v 0.006069 -0.004312 -0.088900
vn 0.141205 -0.980937 -0.133505
v 0.032425 -0.002849 -0.088900
vn 0.124900 -0.706701 0.696401
v 0.029181 -0.005089 0.101600
vn 0.077099 -0.713895 0.695995
v 0.018862 -0.006554 0.101600
vn 0.099904 -0.986040 -0.133206
v 0.025795 -0.003664 -0.088900
vn -0.253106 0.949721 -0.184304
v -0.008757 -0.001164 -0.088900
vn -0.866903 -0.086000 -0.491002
v -0.016526 -0.003325 -0.088900
vn -0.755694 0.386397 0.528796
v -0.045075 -0.006127 0.101600
vn 0.435795 -0.887289 -0.150998
v 0.041928 -0.000291 -0.088900
vn 0.311707 -0.651116 0.692017
v 0.040406 -0.001817 0.101600
vn 0.251499 -0.668499 0.699898
v 0.038230 -0.002698 0.101600
vn 0.343509 -0.928625 -0.140204
v 0.040061 -0.001031 -0.088900
vn 0.213490 -0.683669 0.697868
v 0.037105 -0.003090 0.101600
vn 0.048102 -0.989745 -0.134506
v 0.020950 -0.004019 -0.088900
vn 0.039999 -0.715088 0.697889
v 0.009198 -0.007292 0.101600
vn 0.231308 -0.963732 -0.133105
v 0.036396 -0.002075 -0.088900
vn 0.170100 -0.695701 0.697901
v 0.032275 -0.004430 0.101600
vn -0.175290 0.695758 0.696559
v -0.028136 -0.001663 0.101600
vn -0.226404 0.960818 -0.159903
v -0.001244 0.000688 -0.088900
vn -0.118800 0.600699 -0.790599
v 0.016703 0.000939 -0.101600
vn -0.149498 0.569492 -0.808288
v 0.015206 0.000569 -0.101600
vn -0.200396 0.467491 -0.860984
v 0.013972 0.000127 -0.101600
vn 0.382016 -0.609325 0.694829
v 0.042738 -0.000515 0.101600
vn 0.600488 -0.779685 -0.177497
v 0.043825 0.000806 -0.088900
vn 0.465582 -0.557079 0.687674
v 0.043543 0.000049 0.101600
vn 0.799062 -0.561574 -0.214790
v 0.044709 0.001658 -0.088900
vn 0.713098 -0.207999 0.669498
v 0.045060 0.002130 0.101600
vn 0.619363 -0.379377 0.687359
v 0.044570 0.001142 0.101600
vn 0.212604 0.966018 -0.147003
v 0.041336 0.005509 -0.088900
vn 0.127003 0.982227 -0.138204
v 0.038575 0.005949 -0.088900
vn 0.084798 0.714587 0.694388
v 0.036280 0.007245 0.101600
vn -0.178607 0.974137 -0.138405
v 0.014539 0.004004 -0.088900
vn 0.077298 0.610184 -0.788480
v 0.036720 0.002608 -0.101600
vn -0.056100 0.713305 0.698605
v 0.020892 0.007287 0.101600
vn -0.113400 0.984499 -0.133800
v 0.024852 0.005547 -0.088900
vn -0.078601 0.709206 0.700606
v 0.015358 0.006735 0.101600
vn -0.080102 0.987629 -0.134804
v 0.028618 0.005921 -0.088900
vn 0.389413 -0.480616 -0.785726
v 0.037560 0.001972 -0.101600
vn 0.072298 -0.988273 -0.134496
v 0.023325 -0.003861 -0.088900
vn 0.028900 -0.615393 -0.787691
v 0.019649 -0.000755 -0.101600
vn 0.012300 -0.990089 -0.139899
v 0.010796 -0.004312 -0.088900
vn 0.075998 -0.609184 -0.789379
v 0.028006 -0.000054 -0.101600
vn 0.176406 -0.975235 -0.133405
v 0.032966 -0.002761 -0.088900
vn 0.262110 -0.928535 -0.262910
v 0.036978 -0.000141 -0.095250
vn 0.149795 -0.597079 -0.788072
v 0.034941 0.001090 -0.101600
vn 0.294606 -0.945819 -0.136503
v 0.039683 -0.001160 -0.088900
vn -0.397191 0.288593 -0.871179
v 0.009820 -0.000581 -0.100013
vn -0.294999 -0.001900 -0.955496
v 0.013564 -0.000262 -0.101600
vn -0.228508 0.924132 -0.306210
v 0.013260 0.000618 -0.100013
vn -0.251795 0.900282 -0.355093
v 0.000991 -0.000900 -0.095250
vn -0.957844 -0.246411 -0.147707
v -0.030837 -0.004804 0.006346
vn -0.537292 -0.632691 0.557692
v -0.044993 -0.006396 0.101600
vn -0.062599 -0.979690 -0.190498
v -0.009253 -0.003860 -0.088900
vn -0.042599 -0.984385 -0.170797
v -0.008474 -0.003897 -0.088900
vn -0.034902 -0.717148 0.696046
v -0.034502 -0.007029 0.101600
vn -0.014600 -0.602892 -0.797689
v 0.016134 -0.000785 -0.101600
vn -0.027600 -0.986909 -0.158901
v 0.000875 -0.004230 -0.088900
vn 0.939071 -0.241192 -0.244892
v 0.045117 0.002508 -0.088900
vn 0.958661 0.127895 -0.254190
v 0.045150 0.002970 -0.088900
vn 0.745389 0.084199 0.661291
v 0.045150 0.002969 0.101600
vn 0.546992 -0.473893 0.690090
v 0.044363 0.000863 0.101600
vn 0.780610 0.392005 -0.486806
v 0.041341 0.002881 -0.095250
vn 0.827234 0.509421 -0.237010
v 0.044933 0.003586 -0.088900
vn 0.647393 0.622394 -0.439895
v 0.041154 0.003142 -0.095250
vn 0.560265 0.804549 -0.196988
v 0.044003 0.004510 -0.088900
vn 0.609300 0.083800 -0.788500
v 0.037716 0.002209 -0.101600
vn 0.638114 0.395808 0.660414
v 0.044849 0.003843 0.101600
vn 0.155900 0.702599 0.694299
v 0.039538 0.006694 0.101600
vn 0.346993 0.923382 -0.164197
v 0.042346 0.005219 -0.088900
vn 0.313497 0.654194 0.688294
v 0.042982 0.005507 0.101600
vn -0.090903 0.707223 0.701123
v 0.014081 0.006580 0.101600
vn -0.142300 0.980698 -0.134100
v 0.019731 0.004868 -0.088900
vn -0.109399 0.707696 0.697996
v 0.007864 0.005739 0.101600
vn -0.088402 0.610311 -0.787214
v 0.021175 0.001723 -0.101600
vn -0.163398 0.977086 -0.136398
v 0.017053 0.004446 -0.088900
vn -0.049299 0.989687 -0.134498
v 0.030237 0.006026 -0.088900
vn -0.012700 0.713421 0.700621
v 0.026932 0.007606 0.101600
vn -0.008900 0.990969 -0.133796
v 0.034118 0.006158 -0.088900
vn 0.024201 0.716829 0.696829
v 0.031037 0.007610 0.101600
vn 0.632597 -0.676697 -0.376698
v 0.040885 0.001544 -0.095250
vn 0.768770 -0.460682 -0.443583
v 0.041272 0.001992 -0.095250
vn 0.223692 -0.580580 -0.782872
v 0.037021 0.001692 -0.101600
vn 0.054998 -0.612478 -0.788572
v 0.025061 -0.000376 -0.101600
vn 0.008500 -0.612401 -0.790501
v 0.017798 -0.000802 -0.101600
vn -0.087898 -0.908476 -0.408589
v 0.011281 -0.001052 -0.100013
vn -0.063302 -0.538520 -0.840231
v 0.014249 -0.000607 -0.101600
vn -0.135800 -0.409600 -0.902101
v 0.013904 -0.000518 -0.101600
vn 0.187903 -0.947614 -0.258304
v 0.034229 -0.000803 -0.095250
vn -0.366110 0.595816 -0.714819
v -0.008951 -0.002480 -0.092075
vn -0.230400 0.922900 -0.308500
v 0.003824 -0.000146 -0.095250
vn 0.855997 0.100600 -0.507098
v 0.041433 0.002589 -0.095250
vn 0.274490 0.549279 -0.789270
v 0.037466 0.002432 -0.101600
vn 0.450813 0.580216 0.678319
v 0.043517 0.005194 0.101600
vn 0.224098 0.682693 0.695493
v 0.040760 0.006356 0.101600
vn -0.055999 0.612493 -0.788490
v 0.027006 0.002396 -0.101600
vn -0.028000 0.612994 -0.789592
v 0.031683 0.002704 -0.101600
vn -0.032301 0.712117 0.701317
v 0.025924 0.007572 0.101600
vn 0.077701 0.987712 -0.135602
v 0.038256 0.005980 -0.088900
vn 0.034100 0.612801 -0.789501
v 0.035314 0.002726 -0.101600
vn 0.010200 0.611712 -0.791015
v 0.034762 0.002743 -0.101600
vn -0.007700 0.612405 -0.790507
v 0.033291 0.002747 -0.101600
vn 0.835714 -0.265704 -0.480608
v 0.041402 0.002285 -0.095250
vn -0.069099 -0.928087 -0.365895
v 0.001121 -0.002182 -0.095250
vn 0.120999 -0.600397 -0.790496
v 0.034138 0.000915 -0.101600
vn 0.427886 0.830474 -0.356689
v 0.040685 0.003502 -0.095250
vn 0.135404 0.594218 -0.792824
v 0.037111 0.002538 -0.101600
vn 0.280906 0.947021 -0.155703
v 0.042015 0.005324 -0.088900
vn -0.042001 0.965417 -0.257305
v 0.030998 0.004367 -0.095250
vn -0.030701 0.965816 -0.257404
v 0.033691 0.004452 -0.095250
vn 0.036300 0.990303 -0.134100
v 0.035551 0.006137 -0.088900
vn -0.075300 -0.922204 -0.379302
v 0.007894 -0.001429 -0.098425
vn 0.098997 -0.605483 -0.789677
v 0.031907 0.000503 -0.101600
vn 0.139704 -0.956124 -0.257507
v 0.031571 -0.001265 -0.095250
# 118 vertices, 0 vertices normals


usemtl material_0
f 1//1 2//2 3//3
f 4//4 5//5 6//6
f 7//7 8//8 9//9
f 7//7 9//9 10//10
f 11//11 12//12 13//13
f 14//14 15//15 16//16
f 14//14 16//16 17//17
f 18//18 17//17 16//16
f 19//19 20//20 4//4
f 21//21 22//22 8//8
f 21//21 18//18 22//22
f 23//23 11//11 13//13
f 24//24 3//3 2//2
f 24//24 23//23 3//3
f 24//24 11//11 23//23
f 24//24 2//2 25//25
f 26//26 27//27 12//12
f 28//28 29//29 30//30
f 28//28 14//14 29//29
f 28//28 15//15 14//14
f 31//31 30//30 29//29
f 32//32 33//33 31//31
f 34//34 35//35 36//36
f 37//37 25//25 2//2
f 37//37 2//2 1//1
f 38//38 35//35 34//34
f 39//39 40//40 41//41
f 39//39 42//42 40//40
f 43//43 29//29 14//14
f 44//44 10//10 9//9
f 44//44 9//9 20//20
f 44//44 20//20 19//19
f 44//44 19//19 45//45
f 46//46 19//19 4//4
f 46//46 4//4 6//6
f 46//46 45//45 19//19
f 47//47 7//7 10//10
f 48//48 21//21 8//8
f 48//48 8//8 7//7
f 49//49 21//21 50//50
f 51//51 17//17 18//18
f 51//51 18//18 21//21
f 51//51 21//21 49//49
f 52//52 27//27 53//53
f 52//52 53//53 12//12
f 54//54 24//24 25//25
f 54//54 25//25 26//26
f 55//55 26//26 12//12
f 55//55 12//12 11//11
f 55//55 11//11 26//26
f 56//56 57//57 13//13
f 56//56 13//13 12//12
f 56//56 12//12 57//57
f 58//58 57//57 12//12
f 58//58 59//59 60//60
f 58//58 60//60 57//57
f 58//58 61//61 59//59
f 62//62 5//5 60//60
f 62//62 60//60 59//59
f 62//62 6//6 5//5
f 62//62 59//59 61//61
f 62//62 61//61 6//6
f 63//63 32//32 31//31
f 63//63 64//64 65//65
f 63//63 65//65 32//32
f 66//66 31//31 33//33
f 66//66 30//30 31//31
f 67//67 68//68 64//64
f 69//69 70//70 68//68
f 69//69 67//67 71//71
f 69//69 68//68 67//67
f 72//72 65//65 64//64
f 72//72 64//64 68//68
f 73//73 34//34 36//36
f 74//74 75//75 70//70
f 76//76 40//40 77//77
f 76//76 41//41 40//40
f 76//76 77//77 78//78
f 79//79 77//77 40//40
f 80//80 37//37 1//1
f 80//80 1//1 78//78
f 80//80 78//78 77//77
f 80//80 77//77 79//79
f 80//80 79//79 25//25
f 80//80 25//25 37//37
f 81//81 82//82 83//83
f 81//81 42//42 39//39
f 84//84 83//83 82//82
f 85//85 43//43 31//31
f 85//85 31//31 29//29
f 85//85 29//29 43//43
f 86//86 43//43 71//71
f 86//86 31//31 43//43
f 86//86 63//63 31//31
f 87//87 43//43 14//14
f 87//87 14//14 17//17
f 87//87 17//17 51//51
f 87//87 51//51 49//49
f 87//87 49//49 50//50
f 88//88 44//44 45//45
f 88//88 10//10 44//44
f 88//88 47//47 10//10
f 89//89 45//45 46//46
f 89//89 46//46 6//6
f 89//89 6//6 61//61
f 90//90 91//91 61//61
f 90//90 12//12 91//91
f 92//92 91//91 12//12
f 92//92 12//12 53//53
f 93//93 21//21 48//48
f 94//94 52//52 12//12
f 94//94 12//12 27//27
f 94//94 27//27 52//52
f 95//95 11//11 24//24
f 95//95 24//24 54//54
f 95//95 54//54 26//26
f 95//95 26//26 11//11
f 96//96 63//63 71//71
f 96//96 64//64 63//63
f 96//96 67//67 64//64
f 96//96 71//71 67//67
f 97//97 69//69 71//71
f 97//97 70//70 69//69
f 98//98 72//72 68//68
f 98//98 68//68 70//70
f 98//98 70//70 75//75
f 99//99 75//75 74//74
f 100//100 79//79 40//40
f 100//100 40//40 42//42
f 101//101 100//100 42//42
f 101//101 42//42 81//81
f 102//102 81//81 39//39
f 102//102 82//82 81//81
f 102//102 84//84 82//82
f 102//102 39//39 41//41
f 102//102 36//36 84//84
f 102//102 41//41 76//76
f 102//102 99//99 73//73
f 102//102 73//73 36//36
f 102//102 76//76 78//78
f 102//102 78//78 1//1
f 102//102 1//1 3//3
f 102//102 3//3 23//23
f 102//102 23//23 13//13
f 102//102 13//13 57//57
f 102//102 57//57 60//60
f 102//102 60//60 5//5
f 102//102 5//5 4//4
f 102//102 4//4 20//20
f 102//102 20//20 9//9
f 102//102 9//9 8//8
f 102//102 8//8 22//22
f 102//102 22//22 18//18
f 102//102 18//18 16//16
f 102//102 16//16 15//15
f 102//102 15//15 28//28
f 102//102 28//28 30//30
f 102//102 30//30 66//66
f 102//102 66//66 33//33
f 102//102 33//33 32//32
f 102//102 32//32 65//65
f 102//102 65//65 72//72
f 102//102 72//72 98//98
f 102//102 98//98 75//75
f 102//102 75//75 99//99
f 103//103 84//84 36//36
f 103//103 36//36 35//35
f 103//103 35//35 38//38
f 103//103 38//38 104//104
f 105//105 106//106 83//83
f 107//107 86//86 71//71
f 107//107 71//71 63//63
f 107//107 63//63 86//86
f 108//108 58//58 12//12
f 108//108 61//61 58//58
f 109//109 50//50 21//21
f 109//109 21//21 93//93
f 110//110 97//97 74//74
f 110//110 74//74 70//70
f 110//110 70//70 97//97
f 111//111 38//38 34//34
f 112//112 99//99 74//74
f 112//112 111//111 34//34
f 112//112 34//34 73//73
f 112//112 73//73 99//99
f 112//112 74//74 97//97
f 112//112 97//97 111//111
f 113//113 101//101 81//81
f 113//113 81//81 83//83
f 113//113 83//83 101//101
f 114//114 101//101 83//83
f 114//114 83//83 106//106
f 114//114 106//106 101//101
f 115//115 83//83 84//84
f 115//115 84//84 103//103
f 115//115 103//103 104//104
f 115//115 105//105 83//83
f 115//115 104//104 105//105
f 116//116 108//108 12//12
f 116//116 12//12 90//90
f 116//116 90//90 61//61
f 116//116 61//61 108//108
f 117//117 109//109 93//93
f 117//117 93//93 48//48
f 117//117 48//48 7//7
f 117//117 50//50 109//109
f 117//117 47//47 88//88
f 117//117 87//87 50//50
f 117//117 88//88 45//45
f 117//117 43//43 87//87
f 117//117 45//45 89//89
f 117//117 71//71 43//43
f 117//117 89//89 61//61
f 117//117 111//111 97//97
f 117//117 97//97 71//71
f 117//117 61//61 91//91
f 117//117 91//91 92//92
f 117//117 92//92 53//53
f 117//117 53//53 27//27
f 117//117 27//27 26//26
f 117//117 26//26 25//25
f 117//117 25//25 79//79
f 117//117 79//79 100//100
f 117//117 100//100 101//101
f 117//117 101//101 106//106
f 117//117 106//106 105//105
f 117//117 105//105 104//104
f 117//117 104//104 38//38
f 117//117 38//38 111//111
f 118//118 117//117 7//7
f 118//118 7//7 47//47
f 118//118 47//47 117//117
# 232 faces, 0 coords texture

# End of File
