####
#
# OBJ File Generated by Meshlab
#
####
# Object RudderAxle_convex_hull.obj
#
# Vertices: 77
# Faces: 150
#
####
vn 0.308700 -3.018798 2.617982
v 0.000311 -0.003108 0.139700
vn -0.308902 3.018721 -2.617845
v -0.000325 0.003108 -0.139700
vn 0.308700 -3.018798 -2.617983
v 0.000311 -0.003108 -0.139700
vn 6.242809 0.638579 0.000000
v 0.003101 0.000318 -0.001587
vn -2.456945 -1.783218 -2.628750
v -0.002540 -0.001829 -0.139700
vn -0.308902 3.018721 2.617845
v -0.000325 0.003108 0.139700
vn 4.464654 -4.347004 -0.000002
v 0.002040 -0.002360 0.127000
vn 3.021488 0.307790 -2.633078
v 0.003101 0.000318 -0.139700
vn -1.241975 -2.768783 2.618075
v -0.001286 -0.002851 0.139700
vn -2.767608 1.246827 -2.625671
v -0.002858 0.001279 -0.139700
vn 2.250535 1.665081 2.287576
v 0.001520 0.002725 0.139700
vn 1.534645 -2.698949 2.834978
v 0.001822 -0.002533 0.139700
vn 1.776449 -2.460364 -2.618811
v 0.001822 -0.002533 -0.139700
vn 5.815322 -2.377212 -0.000000
v 0.002887 -0.001176 -0.043838
vn -1.241975 -2.768784 -2.618075
v -0.001286 -0.002851 -0.139700
vn -2.459583 -1.777513 2.619074
v -0.002540 -0.001829 0.139700
vn -3.022050 -0.307168 -2.636179
v -0.003115 -0.000318 -0.139700
vn -1.776940 2.459947 -2.618151
v -0.001836 0.002532 -0.139700
vn -2.768534 1.242684 2.619054
v -0.002858 0.001279 0.139700
vn 1.241881 2.768695 -2.618314
v 0.001271 0.002851 -0.139700
vn 4.696107 4.057508 -0.000488
v 0.002526 0.001838 -0.085791
vn 6.007609 0.614380 0.175498
v 0.003101 0.000318 0.127000
vn 6.161225 -1.126345 -0.000627
v 0.003035 -0.000661 -0.086933
vn 5.293384 -3.283709 -0.000744
v 0.002831 -0.001306 -0.127000
vn -5.972589 -1.848818 0.000968
v -0.002992 -0.000922 -0.001712
vn -1.776940 2.459946 2.618151
v -0.001836 0.002532 0.139700
vn -3.019143 -0.308889 2.620222
v -0.003115 -0.000318 0.139700
vn 0.955950 2.954032 2.835447
v 0.001271 0.002851 0.139700
vn 5.790310 2.372534 0.000782
v 0.002881 0.001188 -0.001864
vn 2.458179 1.781856 -2.627033
v 0.002525 0.001829 -0.139700
vn 5.630008 -2.324463 0.082480
v 0.002843 -0.001279 0.127000
vn 2.541604 -1.174612 2.287977
v 0.002040 -0.002360 0.139700
vn 6.254588 -0.233180 0.001258
v 0.003117 0.000002 -0.001619
vn 5.996385 -1.757680 -0.010177
v 0.002917 -0.001100 -0.127764
vn -5.768146 -2.401145 -0.002372
v -0.002826 -0.001307 -0.128151
vn -6.216038 0.646459 -0.000047
v -0.003115 0.000319 -0.042995
vn 6.100558 1.423349 -0.000365
v 0.003054 0.000626 -0.042893
vn 5.042943 3.416086 0.082637
v 0.002525 0.001829 0.127000
vn 3.490083 5.162325 -0.000001
v 0.001520 0.002725 0.127000
vn 5.396394 3.196038 -0.001227
v 0.002568 0.001769 -0.126648
vn 2.768021 -1.245468 -2.625597
v 0.002843 -0.001279 -0.139700
vn 5.376314 -3.177936 0.000000
v 0.002831 -0.001306 -0.003175
vn 6.240814 -0.613724 -0.013241
v 0.003091 -0.000045 -0.128490
vn 6.275001 0.006808 -0.000591
v 0.003109 0.000162 -0.087297
vn 6.130157 -1.291330 0.001780
v 0.003030 -0.000686 -0.001981
vn 5.904403 -2.115656 0.000213
v 0.002887 -0.001176 -0.002563
vn -5.632897 -2.760905 0.000390
v -0.002815 -0.001341 -0.002038
vn -6.214459 0.654099 0.001133
v -0.003115 0.000319 -0.001720
vn -6.039243 1.697944 0.000971
v -0.002989 0.000899 -0.002189
vn -6.084056 1.449146 -0.007367
v -0.002989 0.000899 -0.126014
vn 6.210931 0.950343 -0.000001
v 0.003077 0.000472 -0.084153
vn 5.983561 1.876374 -0.003579
v 0.002979 0.000830 -0.125558
vn 6.107942 1.399596 0.000698
v 0.003054 0.000626 -0.001618
vn 4.347764 4.528654 0.000124
v 0.002508 0.001853 -0.003175
vn 5.424688 3.155977 0.000205
v 0.002619 0.001691 -0.002461
vn 5.376364 -3.177942 -0.000000
v 0.002831 -0.001306 -0.085725
vn 6.189958 -1.068924 -0.006559
v 0.002989 -0.000738 -0.125965
vn 6.242793 0.638579 0.000000
v 0.003101 0.000318 -0.042862
vn 6.274893 0.322382 0.000000
v 0.003109 0.000162 -0.004747
vn 6.211529 -0.932411 0.000108
v 0.003035 -0.000661 -0.004383
vn -5.294543 -3.358763 -0.000177
v -0.002543 -0.001825 -0.127310
vn -6.252503 0.438693 -0.004393
v -0.003115 0.000000 -0.125479
vn -5.846120 2.286315 -0.000174
v -0.002861 0.001271 -0.127319
vn -6.141780 1.324592 0.000135
v -0.003073 0.000522 -0.004475
vn 5.742308 2.519526 -0.015325
v 0.002764 0.001386 -0.128027
vn 5.736639 2.522180 -0.000962
v 0.002825 0.001291 -0.084547
vn 5.265498 3.428199 0.000130
v 0.002589 0.001738 -0.003787
vn -5.104842 -3.662938 -0.000000
v -0.002543 -0.001825 -0.003485
vn -5.846795 2.284893 0.000002
v -0.002861 0.001271 -0.003494
vn -5.742033 2.551189 0.000000
v -0.002860 0.001273 -0.126689
vn -6.145651 1.301903 -0.000560
v -0.003033 0.000708 -0.084574
vn 5.567449 2.911984 -0.000327
v 0.002750 0.001440 -0.043437
vn -5.104864 -3.662834 -0.000000
v -0.002543 -0.001825 -0.086035
vn -5.304700 -3.351851 0.000006
v -0.002545 -0.001822 -0.002854
vn -5.742088 2.550878 0.000001
v -0.002860 0.001273 -0.002864
vn -5.305450 -3.350750 -0.000010
v -0.002545 -0.001822 -0.044129
vn -5.741949 2.551102 0.000000
v -0.002860 0.001273 -0.044139
# 77 vertices, 0 vertices normals

f 9//9 3//3 1//1
f 13//13 7//7 12//12
f 13//13 12//12 1//1
f 13//13 1//1 3//3
f 15//15 9//9 5//5
f 15//15 3//3 9//9
f 16//16 5//5 9//9
f 20//20 2//2 6//6
f 24//24 7//7 13//13
f 26//26 6//6 2//2
f 26//26 2//2 18//18
f 26//26 18//18 10//10
f 26//26 10//10 19//19
f 27//27 25//25 16//16
f 27//27 17//17 25//25
f 28//28 20//20 6//6
f 28//28 11//11 20//20
f 32//32 22//22 11//11
f 32//32 11//11 28//28
f 32//32 31//31 22//22
f 32//32 1//1 12//12
f 32//32 12//12 7//7
f 32//32 9//9 1//1
f 32//32 16//16 9//9
f 32//32 27//27 16//16
f 32//32 19//19 27//27
f 32//32 26//26 19//19
f 32//32 28//28 6//6
f 32//32 6//6 26//26
f 35//35 25//25 17//17
f 35//35 17//17 5//5
f 38//38 11//11 22//22
f 38//38 22//22 29//29
f 39//39 30//30 20//20
f 39//39 20//20 11//11
f 39//39 11//11 21//21
f 39//39 21//21 30//30
f 40//40 30//30 21//21
f 41//41 14//14 31//31
f 41//41 34//34 14//14
f 41//41 24//24 13//13
f 41//41 30//30 8//8
f 41//41 13//13 3//3
f 41//41 3//3 15//15
f 41//41 15//15 5//5
f 41//41 5//5 17//17
f 41//41 17//17 10//10
f 41//41 10//10 18//18
f 41//41 18//18 2//2
f 41//41 2//2 20//20
f 41//41 20//20 30//30
f 42//42 32//32 7//7
f 42//42 31//31 32//32
f 42//42 41//41 31//31
f 43//43 33//33 23//23
f 43//43 41//41 8//8
f 44//44 43//43 8//8
f 44//44 33//33 43//43
f 45//45 22//22 31//31
f 45//45 34//34 23//23
f 46//46 31//31 14//14
f 46//46 14//14 34//34
f 46//46 45//45 31//31
f 46//46 34//34 45//45
f 47//47 16//16 25//25
f 47//47 25//25 35//35
f 48//48 27//27 19//19
f 48//48 17//17 27//27
f 50//50 10//10 17//17
f 51//51 37//37 4//4
f 51//51 8//8 37//37
f 52//52 37//37 8//8
f 52//52 29//29 37//37
f 53//53 37//37 29//29
f 53//53 29//29 22//22
f 53//53 22//22 4//4
f 53//53 4//4 37//37
f 54//54 38//38 21//21
f 54//54 21//21 11//11
f 54//54 11//11 38//38
f 55//55 38//38 29//29
f 55//55 40//40 21//21
f 56//56 42//42 7//7
f 56//56 7//7 24//24
f 56//56 24//24 41//41
f 56//56 41//41 42//42
f 57//57 43//43 23//23
f 57//57 23//23 34//34
f 57//57 34//34 41//41
f 57//57 41//41 43//43
f 58//58 44//44 8//8
f 58//58 51//51 4//4
f 58//58 8//8 51//51
f 59//59 4//4 22//22
f 59//59 58//58 4//4
f 59//59 44//44 58//58
f 59//59 22//22 33//33
f 59//59 33//33 44//44
f 60//60 45//45 23//23
f 60//60 23//23 33//33
f 60//60 33//33 22//22
f 60//60 22//22 45//45
f 61//61 47//47 35//35
f 61//61 35//35 5//5
f 62//62 36//36 50//50
f 62//62 48//48 36//36
f 62//62 17//17 48//48
f 62//62 50//50 17//17
f 63//63 50//50 49//49
f 63//63 10//10 50//50
f 64//64 48//48 19//19
f 64//64 19//19 49//49
f 64//64 36//36 48//48
f 65//65 30//30 40//40
f 65//65 52//52 8//8
f 65//65 8//8 30//30
f 66//66 65//65 40//40
f 66//66 29//29 52//52
f 66//66 52//52 65//65
f 67//67 55//55 21//21
f 67//67 21//21 38//38
f 67//67 38//38 55//55
f 68//68 5//5 16//16
f 69//69 63//63 49//49
f 69//69 49//49 19//19
f 70//70 19//19 10//10
f 70//70 10//10 63//63
f 71//71 64//64 49//49
f 71//71 49//49 50//50
f 71//71 50//50 36//36
f 71//71 36//36 64//64
f 72//72 55//55 29//29
f 72//72 29//29 66//66
f 72//72 66//66 40//40
f 72//72 40//40 55//55
f 73//73 61//61 5//5
f 73//73 5//5 68//68
f 74//74 68//68 16//16
f 74//74 16//16 47//47
f 74//74 73//73 68//68
f 74//74 61//61 73//73
f 75//75 69//69 19//19
f 76//76 74//74 47//47
f 76//76 47//47 61//61
f 76//76 61//61 74//74
f 77//77 69//69 75//75
f 77//77 75//75 19//19
f 77//77 19//19 70//70
f 77//77 70//70 63//63
f 77//77 63//63 69//69
# 150 faces, 0 coords texture

# End of File
