####
#
# OBJ File Generated by Meshlab
#
####
# Object RudderAxle.obj
#
# Vertices: 109
# Faces: 230
#
####
vn 0.528434 0.801762 -0.279169
v 0.001271 0.002851 -0.139700
vn 0.692312 0.448333 -0.565421
v 0.002525 0.001829 -0.139700
vn 0.817008 0.117514 -0.564525
v 0.003101 0.000318 -0.139700
vn 0.835563 -0.304933 -0.457002
v 0.002843 -0.001279 -0.139700
vn -0.888749 0.402002 -0.220273
v -0.002858 0.001279 -0.139700
vn -0.421218 0.708281 -0.566492
v -0.001836 0.002532 -0.139700
vn -0.010603 0.823989 -0.566506
v -0.000325 0.003108 -0.139700
vn -0.136550 -0.243704 -0.960189
v -0.001286 -0.002851 -0.139700
vn -0.766336 -0.555421 -0.322858
v -0.002540 -0.001829 -0.139700
vn -0.864436 -0.198415 -0.461933
v -0.003115 -0.000318 -0.139700
vn 0.721551 -0.671294 -0.169494
v 0.001822 -0.002533 -0.139700
vn 0.012126 -0.945616 -0.325058
v 0.000311 -0.003108 -0.139700
vn 0.982976 0.142018 0.116572
v 0.002832 -0.001305 -0.127045
vn -0.830888 0.552303 0.067729
v -0.002543 -0.001825 -0.127310
vn 0.994293 -0.008072 -0.106374
v 0.002831 -0.001306 -0.127000
vn 0.738975 0.341689 -0.580658
v 0.002989 -0.000738 -0.125965
vn -0.416336 -0.267611 -0.868935
v -0.002724 -0.001477 -0.126189
vn 0.563798 0.618616 0.547217
v 0.002917 -0.001100 -0.127764
vn -0.618574 0.281491 0.733573
v -0.002826 -0.001307 -0.128151
vn 0.723109 0.078150 0.686299
v 0.003091 -0.000045 -0.128490
vn -0.718397 -0.170421 0.674435
v -0.003075 0.000190 -0.128374
vn -0.644590 -0.334555 0.687443
v -0.002861 0.001271 -0.127319
vn 0.809921 -0.256234 0.527610
v 0.002764 0.001386 -0.128027
vn -0.806542 -0.546389 -0.225720
v -0.002860 0.001273 -0.126689
vn -0.929906 -0.135355 -0.341986
v -0.003115 0.000000 -0.125479
vn 0.743151 0.102080 -0.661292
v 0.002979 0.000830 -0.125558
vn -0.558762 -0.535787 -0.633022
v -0.002989 0.000899 -0.126014
vn 0.965617 -0.055613 -0.253952
v 0.002568 0.001769 -0.126648
vn 0.964529 0.179228 0.193807
v 0.002832 -0.001305 -0.003220
vn -0.950041 0.191968 0.246112
v -0.002543 -0.001825 -0.003485
vn 0.961528 0.268310 -0.058940
v 0.002831 -0.001306 -0.003175
vn -0.728691 0.680449 -0.077447
v -0.002544 -0.001823 -0.003175
vn 0.780803 0.572163 -0.250952
v 0.002887 -0.001176 -0.002563
vn -0.711440 0.553702 -0.432745
v -0.002545 -0.001822 -0.002854
vn 0.554316 0.528463 -0.643009
v 0.003030 -0.000686 -0.001981
vn -0.634982 0.325479 -0.700615
v -0.002815 -0.001341 -0.002038
vn 0.542931 0.316071 -0.778027
v 0.003117 0.000002 -0.001619
vn -0.582207 0.087575 -0.808310
v -0.002992 -0.000922 -0.001712
vn 0.594096 0.112166 -0.796536
v 0.003101 0.000318 -0.001587
vn 0.559089 0.507915 0.655318
v 0.003035 -0.000661 -0.004383
vn 0.857481 -0.108458 0.502955
v 0.003109 0.000162 -0.004747
vn -0.828373 0.025234 0.559608
v -0.002971 -0.000812 -0.004545
vn -0.554843 -0.314444 0.770243
v -0.003073 0.000522 -0.004475
vn 0.635655 -0.367890 0.678675
v 0.002805 0.001282 -0.004288
vn -0.888139 -0.325592 0.324345
v -0.002861 0.001271 -0.003494
vn 0.862902 -0.434795 0.257591
v 0.002589 0.001738 -0.003787
vn -0.577032 -0.813109 0.076730
v -0.002861 0.001272 -0.003175
vn 0.971676 0.236224 -0.006607
v 0.002508 0.001853 -0.003175
vn -0.956581 -0.248528 -0.152273
v -0.002860 0.001273 -0.002864
vn -0.819674 -0.157971 -0.550617
v -0.003115 -0.000318 -0.001587
vn -0.554413 -0.211181 -0.805002
v -0.003115 0.000319 -0.001720
vn 0.600797 -0.192462 -0.775887
v 0.003054 0.000626 -0.001618
vn 0.773980 -0.144969 -0.616392
v 0.002881 0.001188 -0.001864
vn -0.421328 -0.541404 -0.727575
v -0.002989 0.000899 -0.002189
vn 0.689836 -0.546163 -0.475219
v 0.002619 0.001691 -0.002461
vn 0.967451 0.159113 0.196780
v 0.002832 -0.001305 -0.085770
vn -0.834113 0.540505 0.110041
v -0.002543 -0.001825 -0.086035
vn 0.994447 0.005416 -0.105095
v 0.002831 -0.001306 -0.085725
vn 0.735878 0.375753 -0.563288
v 0.002989 -0.000738 -0.084690
vn -0.450095 -0.181933 -0.874251
v -0.002724 -0.001477 -0.084914
vn -0.609814 0.240003 0.755331
v -0.002826 -0.001307 -0.086876
vn 0.553991 0.556989 0.618755
v 0.003035 -0.000661 -0.086933
vn 0.812362 0.029663 0.582399
v 0.003109 0.000162 -0.087297
vn -0.552182 -0.260274 0.792056
v -0.003094 0.000102 -0.087169
vn 0.641652 -0.386586 0.662446
v 0.002805 0.001282 -0.086838
vn -0.922357 0.026432 0.385433
v -0.002861 0.001271 -0.086044
vn 0.965993 0.258090 0.015713
v 0.002526 0.001838 -0.085791
vn -0.898142 -0.365153 -0.244956
v -0.002860 0.001273 -0.085414
vn -0.893598 -0.179711 -0.411324
v -0.003115 -0.000318 -0.084137
vn 0.710208 0.213220 -0.670926
v 0.003077 0.000472 -0.084153
vn 0.658316 -0.450145 -0.603315
v 0.002825 0.001291 -0.084547
vn -0.550765 -0.396017 -0.734731
v -0.003033 0.000708 -0.084574
vn 0.965734 0.171347 0.194932
v 0.002832 -0.001305 -0.044495
vn -0.950422 0.236175 0.202283
v -0.002543 -0.001825 -0.044760
vn 0.972413 0.229352 -0.042545
v 0.002831 -0.001306 -0.044450
vn -0.728640 0.680507 -0.077421
v -0.002544 -0.001823 -0.044450
vn 0.590812 0.739327 -0.323014
v 0.002887 -0.001176 -0.043838
vn -0.853337 0.305316 -0.422609
v -0.002545 -0.001822 -0.044129
vn 0.551294 0.461366 -0.695137
v 0.003006 -0.000688 -0.043338
vn -0.594895 0.196984 -0.779293
v -0.003009 -0.000725 -0.043006
vn 0.778885 0.222663 -0.586310
v 0.003101 0.000318 -0.042862
vn -0.609328 0.241159 0.755355
v -0.002826 -0.001307 -0.045601
vn 0.553991 0.556988 0.618755
v 0.003035 -0.000661 -0.045658
vn 0.815627 0.001613 0.578576
v 0.003109 0.000162 -0.046022
vn -0.822285 -0.134092 0.553052
v -0.003094 0.000102 -0.045894
vn 0.658373 -0.430065 0.617729
v 0.002697 0.001510 -0.045312
vn -0.787913 -0.519975 0.329878
v -0.002861 0.001272 -0.044609
vn 0.995239 0.097462 -0.001060
v 0.002508 0.001853 -0.044450
vn -0.963352 -0.188160 -0.191177
v -0.002860 0.001273 -0.044139
vn -0.808931 -0.085945 -0.581588
v -0.003115 0.000319 -0.042995
vn 0.736707 -0.043327 -0.674823
v 0.003054 0.000626 -0.042893
vn 0.666521 -0.489377 -0.562371
v 0.002750 0.001440 -0.043437
vn -0.559794 -0.487599 -0.669983
v -0.002989 0.000899 -0.043464
vn -0.789742 -0.522375 0.321608
v -0.002540 -0.001829 0.139700
vn -0.269053 -0.778905 0.566496
v -0.001286 -0.002851 0.139700
vn 0.190956 0.590082 0.784435
v 0.001271 0.002851 0.139700
vn 0.914370 -0.203159 0.350218
v 0.002040 -0.002360 0.139700
vn 0.542909 0.374096 0.751865
v 0.001520 0.002725 0.139700
vn 0.378673 -0.592765 0.710800
v 0.001822 -0.002533 0.139700
vn 0.156430 -0.809078 0.566500
v 0.000311 -0.003108 0.139700
vn -0.863651 0.387158 0.322825
v -0.002858 0.001279 0.139700
vn -0.922109 0.065657 0.381318
v -0.003115 -0.000318 0.139700
vn -0.456228 0.525854 0.717867
v -0.001836 0.002532 0.139700
vn -0.156505 0.809059 0.566506
v -0.000325 0.003108 0.139700
vn 0.800804 -0.561168 0.209294
v 0.002040 -0.002360 0.127000
vn 0.721152 0.601587 0.343559
v 0.001520 0.002725 0.127000
vn 0.978983 -0.032051 0.201406
v 0.003101 0.000318 0.127000
vn 0.849557 0.416318 0.323933
v 0.002525 0.001829 0.127000
vn 0.644337 -0.274189 0.713898
v 0.002843 -0.001279 0.127000
# 109 vertices, 0 vertices normals

f 1//1 2//2 8//8
f 8//8 2//2 3//3
f 8//8 3//3 4//4
f 5//5 6//6 8//8
f 8//8 6//6 7//7
f 8//8 7//7 1//1
f 8//8 9//9 10//10
f 8//8 10//10 5//5
f 4//4 11//11 8//8
f 8//8 11//11 12//12
f 13//13 14//14 15//15
f 15//15 14//14 16//16
f 16//16 17//17 26//26
f 13//13 18//18 14//14
f 14//14 18//18 19//19
f 19//19 18//18 20//20
f 19//19 20//20 21//21
f 21//21 20//20 23//23
f 21//21 23//23 22//22
f 22//22 23//23 28//28
f 17//17 25//25 26//26
f 26//26 25//25 27//27
f 26//26 27//27 28//28
f 28//28 27//27 24//24
f 29//29 30//30 31//31
f 31//31 30//30 32//32
f 31//31 32//32 33//33
f 33//33 32//32 34//34
f 33//33 34//34 35//35
f 35//35 34//34 36//36
f 35//35 36//36 37//37
f 37//37 36//36 38//38
f 37//37 38//38 39//39
f 29//29 40//40 30//30
f 30//30 40//40 42//42
f 42//42 40//40 41//41
f 42//42 41//41 43//43
f 43//43 41//41 44//44
f 43//43 44//44 45//45
f 45//45 44//44 46//46
f 45//45 46//46 47//47
f 47//47 46//46 48//48
f 47//47 48//48 49//49
f 38//38 50//50 39//39
f 39//39 50//50 51//51
f 39//39 51//51 52//52
f 52//52 51//51 54//54
f 52//52 54//54 53//53
f 53//53 54//54 55//55
f 55//55 54//54 49//49
f 55//55 49//49 48//48
f 56//56 57//57 58//58
f 58//58 57//57 59//59
f 59//59 60//60 70//70
f 56//56 62//62 57//57
f 57//57 62//62 61//61
f 61//61 62//62 63//63
f 61//61 63//63 64//64
f 64//64 63//63 65//65
f 64//64 65//65 66//66
f 66//66 65//65 67//67
f 60//60 69//69 70//70
f 70//70 69//69 72//72
f 70//70 72//72 71//71
f 71//71 72//72 68//68
f 71//71 68//68 67//67
f 73//73 74//74 75//75
f 75//75 74//74 76//76
f 75//75 76//76 77//77
f 77//77 76//76 78//78
f 77//77 78//78 79//79
f 79//79 78//78 80//80
f 79//79 80//80 81//81
f 73//73 83//83 74//74
f 74//74 83//83 82//82
f 82//82 83//83 84//84
f 82//82 84//84 85//85
f 85//85 84//84 86//86
f 85//85 86//86 87//87
f 87//87 86//86 88//88
f 87//87 88//88 89//89
f 81//81 80//80 90//90
f 81//81 90//90 91//91
f 91//91 90//90 93//93
f 91//91 93//93 92//92
f 92//92 93//93 89//89
f 92//92 89//89 88//88
f 94//94 95//95 96//96
f 97//97 98//98 99//99
f 99//99 98//98 96//96
f 99//99 96//96 100//100
f 100//100 96//96 95//95
f 101//101 102//102 103//103
f 103//103 102//102 94//94
f 103//103 94//94 104//104
f 104//104 94//94 96//96
f 21//21 22//22 5//5
f 10//10 21//21 5//5
f 45//45 93//93 90//90
f 45//45 90//90 43//43
f 47//47 89//89 45//45
f 45//45 89//89 93//93
f 66//66 27//27 25//25
f 66//66 25//25 64//64
f 67//67 24//24 66//66
f 66//66 24//24 27//27
f 67//67 68//68 24//24
f 24//24 68//68 5//5
f 24//24 5//5 28//28
f 28//28 5//5 22//22
f 47//47 49//49 89//89
f 89//89 49//49 5//5
f 89//89 5//5 87//87
f 87//87 5//5 68//68
f 87//87 68//68 85//85
f 85//85 68//68 72//72
f 85//85 72//72 69//69
f 54//54 51//51 102//102
f 102//102 51//51 50//50
f 102//102 50//50 94//94
f 94//94 50//50 38//38
f 94//94 38//38 36//36
f 36//36 34//34 94//94
f 94//94 34//34 32//32
f 94//94 32//32 30//30
f 74//74 60//60 59//59
f 74//74 59//59 57//57
f 60//60 74//74 69//69
f 69//69 74//74 82//82
f 69//69 82//82 85//85
f 57//57 17//17 16//16
f 17//17 57//57 25//25
f 25//25 57//57 61//61
f 25//25 61//61 64//64
f 43//43 90//90 42//42
f 42//42 90//90 80//80
f 30//30 42//42 78//78
f 78//78 42//42 80//80
f 16//16 14//14 57//57
f 57//57 14//14 94//94
f 57//57 94//94 74//74
f 74//74 94//94 30//30
f 74//74 30//30 76//76
f 76//76 30//30 78//78
f 10//10 19//19 21//21
f 4//4 13//13 11//11
f 11//11 13//13 15//15
f 11//11 15//15 56//56
f 56//56 58//58 11//11
f 11//11 58//58 73//73
f 11//11 73//73 75//75
f 75//75 29//29 11//11
f 11//11 29//29 31//31
f 11//11 31//31 105//105
f 20//20 18//18 4//4
f 4//4 18//18 13//13
f 2//2 23//23 3//3
f 3//3 23//23 20//20
f 3//3 20//20 4//4
f 96//96 98//98 106//106
f 48//48 88//88 1//1
f 67//67 26//26 28//28
f 26//26 67//67 65//65
f 26//26 65//65 63//63
f 15//15 62//62 56//56
f 62//62 15//15 63//63
f 63//63 15//15 16//16
f 63//63 16//16 26//26
f 75//75 40//40 29//29
f 40//40 75//75 41//41
f 41//41 75//75 77//77
f 41//41 77//77 79//79
f 41//41 79//79 81//81
f 88//88 48//48 92//92
f 92//92 48//48 91//91
f 91//91 48//48 46//46
f 91//91 46//46 81//81
f 81//81 46//46 44//44
f 81//81 44//44 41//41
f 107//107 39//39 108//108
f 108//108 39//39 52//52
f 52//52 53//53 108//108
f 108//108 53//53 55//55
f 107//107 35//35 37//37
f 107//107 37//37 39//39
f 105//105 31//31 109//109
f 109//109 31//31 33//33
f 109//109 33//33 107//107
f 107//107 33//33 35//35
f 23//23 2//2 28//28
f 28//28 2//2 1//1
f 28//28 1//1 67//67
f 67//67 1//1 88//88
f 67//67 88//88 71//71
f 71//71 88//88 70//70
f 70//70 88//88 86//86
f 70//70 86//86 84//84
f 58//58 83//83 73//73
f 83//83 58//58 84//84
f 84//84 58//58 59//59
f 84//84 59//59 70//70
f 108//108 55//55 48//48
f 108//108 48//48 106//106
f 106//106 48//48 1//1
f 106//106 1//1 96//96
f 96//96 1//1 7//7
f 96//96 7//7 104//104
f 104//104 7//7 6//6
f 104//104 6//6 103//103
f 103//103 6//6 5//5
f 103//103 5//5 101//101
f 101//101 5//5 49//49
f 101//101 49//49 102//102
f 102//102 49//49 54//54
f 19//19 10//10 14//14
f 14//14 10//10 9//9
f 14//14 9//9 94//94
f 94//94 9//9 8//8
f 94//94 8//8 95//95
f 95//95 8//8 12//12
f 95//95 12//12 100//100
f 100//100 12//12 11//11
f 100//100 11//11 99//99
f 99//99 11//11 105//105
f 99//99 105//105 97//97
f 107//107 108//108 109//109
f 109//109 108//108 106//106
f 109//109 106//106 105//105
f 105//105 106//106 97//97
f 97//97 106//106 98//98
# 230 faces, 0 coords texture

# End of File
