####
#
# OBJ File Generated by Meshlab
#
####
# Object sail_colored.obj
#
# Vertices: 36
# Faces: 68
#
####
mtllib ./sail_colored.obj.mtl

vn 0.054901 -0.716315 0.695614
v -0.023840 -0.027605 0.495300
vn 0.054901 -0.716315 -0.695614
v -0.023840 -0.027605 -0.495300
vn 0.117895 -0.705468 0.698868
v 0.039115 -0.019470 0.495300
vn 0.117895 -0.705468 -0.698868
v 0.039115 -0.019470 -0.495300
vn -0.035999 -0.722173 -0.690775
v -0.067450 -0.028678 -0.495300
vn -0.035999 -0.722174 0.690775
v -0.067450 -0.028678 0.495300
vn -0.165594 -0.710174 0.684275
v -0.097362 -0.024943 0.495300
vn -0.165594 -0.710174 -0.684275
v -0.097362 -0.024943 -0.495300
vn -0.314599 -0.659198 -0.682998
v -0.115893 -0.018514 -0.495300
vn -0.314488 -0.659275 0.682974
v -0.115893 -0.018514 0.495300
vn 0.154901 -0.693806 -0.703306
v 0.112678 -0.004356 -0.495300
vn 0.154901 -0.693806 0.703306
v 0.112678 -0.004356 0.495300
vn 0.841286 0.000000 -0.540591
v 0.130218 -0.000126 -0.495300
vn 0.841286 -0.000000 0.540591
v 0.130218 -0.000126 0.495300
vn -0.464399 0.579399 0.669799
v -0.122115 0.014327 0.495300
vn -0.271499 0.679997 -0.681097
v -0.110278 0.020797 -0.495300
vn -0.464399 0.579399 -0.669799
v -0.122115 0.014327 -0.495300
vn -0.271499 0.679997 0.681097
v -0.110278 0.020797 0.495300
vn -0.756773 -0.000900 -0.653677
v -0.130218 -0.000126 -0.495300
vn -0.756773 -0.000900 0.653677
v -0.130218 -0.000126 0.495300
vn -0.663980 0.353190 -0.659081
v -0.128251 0.007326 -0.495300
vn -0.661994 -0.358897 0.657994
v -0.128214 -0.007645 0.495300
vn -0.661994 -0.358897 -0.657994
v -0.128214 -0.007645 -0.495300
vn -0.123501 0.715407 -0.687707
v -0.090422 0.026068 -0.495300
vn -0.123501 0.715407 0.687707
v -0.090422 0.026068 0.495300
vn -0.013400 0.720807 0.693007
v -0.058863 0.028678 0.495300
vn -0.013400 0.720807 -0.693006
v -0.058863 0.028678 -0.495300
vn -0.663980 0.353190 0.659081
v -0.128251 0.007326 0.495300
vn -0.472501 -0.564401 0.676901
v -0.121649 -0.014934 0.495300
vn 0.063802 0.713819 0.697418
v -0.017257 0.026785 0.495300
vn 0.119095 0.704769 0.699369
v 0.037890 0.019424 0.495300
vn 0.154706 0.693928 0.703228
v 0.112678 0.004105 0.495300
vn 0.154706 0.693928 -0.703228
v 0.112678 0.004105 -0.495300
vn 0.119095 0.704769 -0.699369
v 0.037890 0.019424 -0.495300
vn 0.063802 0.713819 -0.697418
v -0.017257 0.026785 -0.495300
vn -0.472501 -0.564401 -0.676901
v -0.121649 -0.014934 -0.495300
# 36 vertices, 0 vertices normals


usemtl material_0
f 1//1 2//2 3//3
f 4//4 3//3 2//2
f 5//5 1//1 6//6
f 5//5 2//2 1//1
f 7//7 5//5 6//6
f 7//7 8//8 5//5
f 7//7 9//9 8//8
f 7//7 10//10 9//9
f 11//11 12//12 3//3
f 11//11 3//3 4//4
f 11//11 13//13 14//14
f 11//11 14//14 12//12
f 15//15 16//16 17//17
f 15//15 18//18 16//16
f 19//19 20//20 21//21
f 19//19 22//22 20//20
f 19//19 23//23 22//22
f 24//24 16//16 18//18
f 24//24 18//18 25//25
f 24//24 25//25 26//26
f 24//24 26//26 27//27
f 28//28 21//21 20//20
f 28//28 15//15 17//17
f 28//28 17//17 21//21
f 28//28 18//18 15//15
f 28//28 20//20 22//22
f 28//28 22//22 29//29
f 28//28 25//25 18//18
f 28//28 26//26 25//25
f 28//28 30//30 26//26
f 28//28 31//31 30//30
f 28//28 32//32 31//31
f 28//28 14//14 32//32
f 28//28 12//12 14//14
f 28//28 3//3 12//12
f 28//28 1//1 3//3
f 28//28 6//6 1//1
f 28//28 7//7 6//6
f 28//28 29//29 10//10
f 28//28 10//10 7//7
f 33//33 32//32 14//14
f 33//33 14//14 13//13
f 33//33 34//34 31//31
f 33//33 31//31 32//32
f 35//35 30//30 31//31
f 35//35 31//31 34//34
f 35//35 27//27 26//26
f 35//35 26//26 30//30
f 36//36 29//29 22//22
f 36//36 23//23 19//19
f 36//36 22//22 23//23
f 36//36 9//9 10//10
f 36//36 10//10 29//29
f 36//36 8//8 9//9
f 36//36 5//5 8//8
f 36//36 19//19 21//21
f 36//36 2//2 5//5
f 36//36 21//21 17//17
f 36//36 4//4 2//2
f 36//36 17//17 16//16
f 36//36 11//11 4//4
f 36//36 16//16 24//24
f 36//36 13//13 11//11
f 36//36 24//24 27//27
f 36//36 27//27 35//35
f 36//36 33//33 13//13
f 36//36 35//35 34//34
f 36//36 34//34 33//33
# 68 faces, 0 coords texture

# End of File
